/* XPM */
static char * gate2_xpm[] = {
"42 42 547 2",
"  	c #AD9F8B",
". 	c #AFA18C",
"+ 	c #B0A28D",
"@ 	c #B1A38E",
"# 	c #AA9C89",
"$ 	c #897A6F",
"% 	c #8B7D71",
"& 	c #AC9E8A",
"* 	c #96887A",
"= 	c #82736A",
"- 	c #A09280",
"; 	c #918375",
"> 	c #83746B",
", 	c #A69886",
"' 	c #AB9D89",
") 	c #897C70",
"! 	c #6E5F5C",
"~ 	c #70605D",
"{ 	c #8F8174",
"] 	c #938577",
"^ 	c #A09281",
"/ 	c #8F8074",
"( 	c #86776D",
"_ 	c #A89A87",
": 	c #988A7B",
"< 	c #807168",
"[ 	c #A09180",
"} 	c #AFA18D",
"| 	c #928477",
"1 	c #A29482",
"2 	c #97897A",
"3 	c #7A6B65",
"4 	c #887A6F",
"5 	c #A69986",
"6 	c #897B70",
"7 	c #7E6F67",
"8 	c #8E8073",
"9 	c #7D6E67",
"0 	c #AEA08B",
"a 	c #948678",
"b 	c #7A6A64",
"c 	c #7E7067",
"d 	c #85766D",
"e 	c #A99B87",
"f 	c #998B7B",
"g 	c #796A63",
"h 	c #A19281",
"i 	c #736360",
"j 	c #978879",
"k 	c #887A70",
"l 	c #84756C",
"m 	c #9F9180",
"n 	c #A19382",
"o 	c #8D7F73",
"p 	c #6D5D5B",
"q 	c #817369",
"r 	c #A79986",
"s 	c #8A7C70",
"t 	c #807269",
"u 	c #8C7D71",
"v 	c #84766C",
"w 	c #776762",
"x 	c #807169",
"y 	c #9B8D7D",
"z 	c #AEA08C",
"A 	c #71615E",
"B 	c #968879",
"C 	c #72625E",
"D 	c #786962",
"E 	c #786963",
"F 	c #756560",
"G 	c #6F5F5C",
"H 	c #423432",
"I 	c #2C1A18",
"J 	c #2B1917",
"K 	c #301C1A",
"L 	c #75453E",
"M 	c #75463E",
"N 	c #77463F",
"O 	c #4D2D29",
"P 	c #231514",
"Q 	c #392926",
"R 	c #74665F",
"S 	c #71635D",
"T 	c #6D5F5A",
"U 	c #6F605C",
"V 	c #998A7B",
"W 	c #AA9C88",
"X 	c #B1A38D",
"Y 	c #A99B88",
"Z 	c #7E7066",
"` 	c #625453",
" .	c #5C4D49",
"..	c #392320",
"+.	c #3D2825",
"@.	c #291F1C",
"#.	c #663C36",
"$.	c #72433D",
"%.	c #6E413A",
"&.	c #2A1818",
"*.	c #522E2F",
"=.	c #532E30",
"-.	c #341C1E",
";.	c #603933",
">.	c #6D403A",
",.	c #271A19",
"'.	c #3B2522",
").	c #3A2521",
"!.	c #685A50",
"~.	c #786B63",
"{.	c #7A6C63",
"].	c #A69885",
"^.	c #998B7C",
"/.	c #796963",
"(.	c #87786E",
"_.	c #9D8F7E",
":.	c #9E9080",
"<.	c #9E907F",
"[.	c #827568",
"}.	c #422825",
"|.	c #361F1E",
"1.	c #462925",
"2.	c #71433D",
"3.	c #432724",
"4.	c #472729",
"5.	c #522D2F",
"6.	c #4F2C2E",
"7.	c #221315",
"8.	c #462729",
"9.	c #482829",
"0.	c #2D191B",
"a.	c #452628",
"b.	c #512D2F",
"c.	c #4E2B2D",
"d.	c #321D1C",
"e.	c #70423C",
"f.	c #57322E",
"g.	c #2E1B1A",
"h.	c #412622",
"i.	c #786A5F",
"j.	c #9C8E7D",
"k.	c #9D8F7F",
"l.	c #70615E",
"m.	c #6E5E5C",
"n.	c #918376",
"o.	c #776862",
"p.	c #7C6D66",
"q.	c #786862",
"r.	c #794840",
"s.	c #6A3F38",
"t.	c #301B1D",
"u.	c #522D30",
"v.	c #301B1C",
"w.	c #3B2022",
"x.	c #432527",
"y.	c #412426",
"z.	c #1C0E15",
"A.	c #170C14",
"B.	c #140B11",
"C.	c #110B0F",
"D.	c #170B13",
"E.	c #3A2022",
"F.	c #402325",
"G.	c #251517",
"H.	c #3C2123",
"I.	c #5B3630",
"J.	c #7C4A41",
"K.	c #422723",
"L.	c #72645E",
"M.	c #7F7068",
"N.	c #746460",
"O.	c #766761",
"P.	c #958679",
"Q.	c #938477",
"R.	c #756661",
"S.	c #6B5B5A",
"T.	c #5C3531",
"U.	c #3F2325",
"V.	c #3F2324",
"W.	c #261517",
"X.	c #160B13",
"Y.	c #180B15",
"Z.	c #140C10",
"`.	c #3D1F26",
" +	c #3E2027",
".+	c #361C23",
"++	c #2D161E",
"@+	c #3F2027",
"#+	c #231317",
"$+	c #190B15",
"%+	c #180B14",
"&+	c #1C1113",
"*+	c #3E2224",
"=+	c #2E191B",
"-+	c #4F2D2A",
";+	c #75463F",
">+	c #807468",
",+	c #7E6F68",
"'+	c #B2A48E",
")+	c #A39583",
"!+	c #83746A",
"~+	c #2D1A18",
"{+	c #73443D",
"]+	c #462629",
"^+	c #09090B",
"/+	c #130B11",
"(+	c #1C0C17",
"_+	c #120B10",
":+	c #3A1E24",
"<+	c #412228",
"[+	c #2A151C",
"}+	c #502C2E",
"|+	c #48272B",
"1+	c #3C1F26",
"2+	c #522E30",
"3+	c #341B21",
"4+	c #3C1F25",
"5+	c #422328",
"6+	c #3F2127",
"7+	c #1B0C17",
"8+	c #07090A",
"9+	c #3B2023",
"0+	c #6F413C",
"a+	c #432723",
"b+	c #8D8072",
"c+	c #87796F",
"d+	c #6B5B59",
"e+	c #9C8E7E",
"f+	c #908275",
"g+	c #958778",
"h+	c #60524D",
"i+	c #492C28",
"j+	c #2C191A",
"k+	c #150B12",
"l+	c #361B22",
"m+	c #46252A",
"n+	c #301820",
"o+	c #49282B",
"p+	c #331822",
"q+	c #47262B",
"r+	c #381C25",
"s+	c #4B292C",
"t+	c #4E2B2E",
"u+	c #2C151E",
"v+	c #45252A",
"w+	c #190C14",
"x+	c #452825",
"y+	c #5F504A",
"z+	c #918374",
"A+	c #796A64",
"B+	c #988B7B",
"C+	c #746560",
"D+	c #4A3C38",
"E+	c #613A34",
"F+	c #3B2122",
"G+	c #180C14",
"H+	c #402128",
"I+	c #3A1D25",
"J+	c #49282C",
"K+	c #502C2F",
"L+	c #321822",
"M+	c #381C24",
"N+	c #4A292C",
"O+	c #341923",
"P+	c #1D0D18",
"Q+	c #321B1D",
"R+	c #5D3632",
"S+	c #4F3A36",
"T+	c #756761",
"U+	c #85776D",
"V+	c #766661",
"W+	c #85766C",
"X+	c #908175",
"Y+	c #908174",
"Z+	c #391D25",
"`+	c #331923",
" @	c #1D0C17",
".@	c #6E413B",
"+@	c #776A62",
"@@	c #8E7F73",
"#@	c #ADA08B",
"$@	c #9B8E7E",
"%@	c #331823",
"&@	c #83766B",
"*@	c #6C5C5A",
"=@	c #87796E",
"-@	c #A29483",
";@	c #4C2A2D",
">@	c #2B1320",
",@	c #2D1420",
"'@	c #26121B",
")@	c #0C0A0C",
"!@	c #6F615C",
"~@	c #73635F",
"{@	c #70615D",
"]@	c #81726A",
"^@	c #2D151F",
"/@	c #24101B",
"(@	c #110B0E",
"_@	c #100B0E",
":@	c #0B0A0C",
"<@	c #7A6D64",
"[@	c #6D5C5B",
"}@	c #B0A28E",
"|@	c #4A282C",
"1@	c #391D24",
"2@	c #190D13",
"3@	c #0F0B0D",
"4@	c #0A0A0B",
"5@	c #8C8071",
"6@	c #7D6F67",
"7@	c #9A8B7C",
"8@	c #AD9F8A",
"9@	c #72443D",
"0@	c #502D2F",
"a@	c #1B0E14",
"b@	c #180C13",
"c@	c #3B2123",
"d@	c #98897B",
"e@	c #4E3F3C",
"f@	c #5A3531",
"g@	c #371F20",
"h@	c #4F2B2E",
"i@	c #2F1521",
"j@	c #371B24",
"k@	c #1F0E18",
"l@	c #2F1A1C",
"m@	c #57322F",
"n@	c #54423E",
"o@	c #938677",
"p@	c #6F605D",
"q@	c #81736A",
"r@	c #675856",
"s@	c #635451",
"t@	c #4B3C3B",
"u@	c #502F2B",
"v@	c #311B1D",
"w@	c #1E0D18",
"x@	c #291719",
"y@	c #4C2C29",
"z@	c #574541",
"A@	c #897C6F",
"B@	c #9F9181",
"C@	c #70605E",
"D@	c #8E8074",
"E@	c #574847",
"F@	c #463838",
"G@	c #110A0F",
"H@	c #30181F",
"I@	c #301722",
"J@	c #675955",
"K@	c #72635F",
"L@	c #6A5B59",
"M@	c #6E5E5B",
"N@	c #8D7F72",
"O@	c #83756B",
"P@	c #544544",
"Q@	c #3E3030",
"R@	c #240F1C",
"S@	c #493D3D",
"T@	c #5B4C4B",
"U@	c #6A5A58",
"V@	c #625352",
"W@	c #594A49",
"X@	c #675855",
"Y@	c #72645D",
"Z@	c #776B5F",
"`@	c #60504F",
" #	c #675755",
".#	c #6B5A59",
"+#	c #554645",
"@#	c #3F3131",
"##	c #0E0B0C",
"$#	c #220F1A",
"%#	c #382B2B",
"&#	c #524342",
"*#	c #695A58",
"=#	c #635352",
"-#	c #5A4B4A",
";#	c #665755",
">#	c #5C4D4B",
",#	c #413333",
"'#	c #4E3F3E",
")#	c #5F504F",
"!#	c #3F3130",
"~#	c #1D0E16",
"{#	c #28111D",
"]#	c #28111E",
"^#	c #372A2B",
"/#	c #514342",
"(#	c #574948",
"_#	c #403232",
":#	c #615250",
"<#	c #675756",
"[#	c #554746",
"}#	c #3D2026",
"|#	c #4C2A2C",
"1#	c #201215",
"2#	c #331C1E",
"3#	c #625351",
"4#	c #534543",
"5#	c #504140",
"6#	c #483A3A",
"7#	c #5D4E4C",
"8#	c #625250",
"9#	c #695957",
"0#	c #271618",
"a#	c #1E0F16",
"b#	c #1F0D18",
"c#	c #514242",
"d#	c #5D4E4D",
"e#	c #3C2E2E",
"f#	c #3D2F2F",
"g#	c #403233",
"h#	c #655553",
"i#	c #392A28",
"j#	c #683D37",
"k#	c #201116",
"l#	c #27111D",
"m#	c #1D0E17",
"n#	c #361E20",
"o#	c #643B36",
"p#	c #422926",
"q#	c #433637",
"r#	c #4C3E3E",
"s#	c #493A3A",
"t#	c #443636",
"u#	c #4F413F",
"v#	c #665654",
"w#	c #5C4D4C",
"x#	c #4D3F3E",
"y#	c #423433",
"z#	c #3D2422",
"A#	c #371C23",
"B#	c #190D14",
"C#	c #211118",
"D#	c #201214",
"E#	c #3A211F",
"F#	c #524341",
"G#	c #685856",
"H#	c #645553",
"I#	c #635452",
"J#	c #594B49",
"K#	c #5F504E",
"L#	c #3E302F",
"M#	c #2E1521",
"N#	c #645453",
"O#	c #615150",
"P#	c #5E4F4E",
"Q#	c #685857",
"R#	c #5B4D4B",
"S#	c #1D0C18",
"T#	c #635453",
"U#	c #4A3C3A",
"V#	c #5C4C4B",
"W#	c #413433",
"X#	c #4F4140",
"Y#	c #60514F",
"Z#	c #564846",
"`#	c #423434",
" $	c #140B12",
".$	c #625452",
"+$	c #685957",
"@$	c #524443",
"#$	c #4A3C3B",
"$$	c #361B23",
"%$	c #160C12",
"&$	c #0A090B",
"*$	c #635351",
"=$	c #625251",
"-$	c #655654",
";$	c #695958",
">$	c #29121E",
",$	c #0E0B0D",
"'$	c #534645",
")$	c #665655",
"!$	c #544644",
"~$	c #473939",
"{$	c #534443",
"]$	c #2B121F",
"^$	c #26111C",
"/$	c #200F18",
"($	c #615351",
"_$	c #6A5A59",
":$	c #473938",
"<$	c #433535",
"[$	c #4D2A2D",
"}$	c #432429",
"|$	c #1B0C16",
"1$	c #645554",
"2$	c #504241",
"3$	c #594B4A",
"4$	c #5C4E4C",
"5$	c #31211F",
"6$	c #6A3F39",
"7$	c #371E20",
"8$	c #663C37",
"9$	c #472F2B",
"0$	c #534544",
"a$	c #5A4B49",
"b$	c #453737",
"c$	c #463837",
"d$	c #463737",
"e$	c #564746",
"f$	c #3B2220",
"g$	c #231416",
"h$	c #1E1213",
"i$	c #37201E",
"j$	c #584947",
"k$	c #655554",
"l$	c #605150",
"m$	c #544746",
"n$	c #4B3D3C",
"o$	c #3B2E2E",
"p$	c #574947",
"q$	c #504141",
"r$	c #291817",
"s$	c #382A2B",
"t$	c #544545",
"u$	c #443635",
"v$	c #623A34",
"w$	c #391C25",
"x$	c #6E403B",
"y$	c #673D36",
"z$	c #382625",
"A$	c #483939",
"B$	c #594A48",
"C$	c #372A29",
"D$	c #2F2423",
"E$	c #623836",
"F$	c #5E3634",
"G$	c #100A0F",
"H$	c #2C161D",
"I$	c #3B1E26",
"J$	c #27141B",
"K$	c #341A22",
"L$	c #221118",
"M$	c #321921",
"N$	c #29151C",
"O$	c #3A1E25",
"P$	c #26131A",
"Q$	c #351B22",
"R$	c #231118",
"S$	c #120A10",
"T$	c #5C3433",
"U$	c #2D1A1A",
"V$	c #18110B",
"  . + + + @ # $ % & + * = - ; > , @ @ ' ) ! ~ ~ {   . ] > ^ / ( _ @ + + + : < [ } + ",
"| 1 + + + @ # $ %   + 2 3 4 < = 5 @ @ ' 6 7 8 9 / 0 + a b 4 c d e @ + + + f g 4 h . ",
"i j . + + @ # k l m n o ~ p p q r @ @ & s > * t ( m n u ~ p p v e @ + + + f w x y z ",
"A B . + + @ # 4 C D E F G H I J K L M M N O P I I Q R S T U ! v e @ + + + V 9 : W + ",
"C B . + + X Y Z `  ...+.@.#.$.%.&.*.=.=.=.-.;.$.$.>.,.'.).!.~.{.].@ + + + ^./.(.m . ",
"G 6 _.:.<.m [.}.|.1.$.2.3.4.5.6.7.8.4.4.9.0.a.5.b.c.d.e.2.f.g.h.i.j.k.<.<.o l.m.n.  ",
"o.p.7 g o.q.I r.s.t.u.u.v.w.x.y.z.A.B.C.A.D.E.x.x.F.G.b.b.H.I.J.K.L.x M.3 N.G O.P.0 ",
"<.<.Q.R.S.S.I M T.G.U.V.W.X.Y.Z.`. +.+++@+@+#+X.$+%+&+*+V.=+-+;+K.>+k.: ,+S.O.] r . ",
"@ '+)+9 x !+~+{+]+^+/+(+_+:+<+[+}+*.|+1+2+2+3+4+5+6+Z.7+X.8+9+0+a+b+@ ' c+d+F ; ].. ",
"e Y e+9 f+g+h+i+j+k+l+m+n+o+b.p+}+b.q+1+5.5.r+s+5.t+u+v+4+w+G.x+y+z+Y )+v C A+< B+0 ",
"( ( x C+9 7 D+E+F+G+H+2+I+J+K+L+}+b.q+1+5.5.M+N+b.t+O+b.q+P+Q+R+S+T+U+= V+W+<.n _ . ",
"{ { { X+Y+W+I $.8.%+H+2+Z+J+K+L+}+b.q+1+5.5.M+N+b.t+`+b.q+ @9+.@a++@U+l.p @@0 '++ + ",
"      #@0 $@I $.8.%+H+2+Z+J+K+L+}+b.q+1+5.5.M+N+b.t+%@}+m+(+9+.@a+&@] N.*@=@-@, ' } ",
"+ + + + + :.I $.8.%+H+2+Z+J+K+L+}+b.q+1+5.5.M+N+b.;@>@,@'@)@9+.@a+!@9 ~@{@o.M.]@B+z ",
"+ + + + + <.I $.8.%+H+2+Z+J+K+L+}+b.q+1+5.5.M+N+;@^@/@(@_@:@9+.@a+<@a a a ( G [@f+  ",
"+ + + + }@m I $.8.%+H+2+Z+J+K+L+}+b.q+1+5.5.M+|@1@2@3@3@3@4@9+.@a+5@z . z : O.6@7@0 ",
"8@8@8@8@  e+~+9@8.%+H+2+Z+J+K+L+}+b.q+1+5.5.M+N+0@1@a@b@w+_+c@0+a+b++ X + V 9 d@W } ",
"/ 8 8 / { U+e@f@g@G+H+2+Z+J+K+L+}+b.q+1+5.5.M+N+b.h@i@1+j@k@l@m@n@o@+ X + ^.g 4 ^ . ",
"p@9 q@~@r@s@t@u@v@w+H+=.I+J+K+L+}+b.q+1+5.5.M+N+b.t+O+5.q+w@x@y@z@A@B@^ m @@C ~ | . ",
"C@D@2 O.E@F@~+{+4.G@H@6+I@|@K+L+}+b.q+1+5.5.M+N+b.t+`+b.q+(+c@0+a+J@O.E E K@L@M@N@r ",
"G c O@{@P@Q@I $.8.:@Z.w+R@|@K+L+}+b.q+1+5.5.M+N+b.t+`+b.q+ @w..@a+S@T@U@*@V@W@X@Y@Z@",
"`@ #p .#+#@#I $.8.)@3@##$#|@K+L+}+b.q+1+5.5.M+N+b.t+`+b.q+ @w..@a+%#&#*#p =#-#;#>#,#",
"'#)#p d++#!#I $.8.:@~#{#]#|@K+L+}+b.q+1+5.5.M+N+b.t+p+0@q+ @w..@a+^#/#*#m.U@;#;#(#_#",
":#<#p U@[#_#I $.8.D.}#6.M+J+K+L+}+b.q+1+5.5.M+N+b.|#1#2#v+ @w..@a+%#/#*#p 3#4#5#6#@#",
"7#7#8#9#:#E@I $.8.%+H+2+Z+J+K+L+}+b.q+1+5.5.M+N+6.0#N+x.a#b#9+.@a+^#c#*#p d#,#e#f#Q@",
",#g#5#r@9#h#i#j#F.G+H+2+Z+J+K+L+}+b.q+1+5.5.M+N+6.k#l#/@m#k@n#o#p#q#E@U@p :#r#s#t#@#",
"@#Q@u#v#w#x#y#z#G.w+H+2+Z+J+K+L+}+b.q+1+5.5.M+N+K+A#B#C#%@k@D#E#F#3#G#*@p 9#H#I#+#_#",
"J#W@K#G#+#L#~+9@8.%+H+2+Z+J+K+L+}+b.q+1+5.5.M+N+b.h@M#<+q+(+c@0+a+N#p d+O#-#P#Q#R#y#",
"N#G#*@U@+#Q@I $.8.%+H+2+Z+J+K+L+}+b.q+1+5.5.M+N+b.t+O+5.q+S#w..@a+T#m.9#/#!#U#I#V#W#",
"X#Y#p d+Z#`#I $.8.%+H+2+Z+J+K+L+}+b.q+1+5.5.M+N+b.t+O+t+A# $9+.@a+.$*@+$@$_##$I#>#W#",
"w#v#p *@I#w#I $.8.%+H+2+Z+J+K+L+}+b.q+1+5.5.M+N+b.t+i@$$%$&$9+.@a+(#)#9#*$>#)#+$>#W#",
"=$3#-$*@p ;$I $.8.%+H+2+Z+J+K+L+}+b.q+1+5.5.M+N+b.t+>$%$,$:@9+.@a+'$T@9#)$3#3#3#!$_#",
"~$F@{$Q#M@=#I $.8.%+H+2+Z+J+K+L+}+b.q+1+5.5.M+N+b.t+]$^$/$&$9+.@a+($_$9#[#:$~$:$<$@#",
"f#e#x#r@m.O#I $.8.%+H+2+Z+J+K+L+}+b.q+1+5.5.M+N+b.t+L+[$}$|$9+.@a+1$m.9#2$f#f#f#Q@Q@",
"@$/#3$*#M@O#I $.8.%+H+2+Z+J+K+L+}+b.q+1+5.5.M+N+b.t+`+b.q+ @w..@a+4$-$<#2$f#f#f#f#Q@",
"H#r@U@*@p =#5$6$y.G+H+2+Z+J+K+L+}+b.q+1+5.5.M+N+b.t+`+b.q+ @7$8$9$0$a$)$[#b$c$d$`#Q@",
"0$3#p p p 9#e$f$g$w+H+2+Z+J+K+L+}+b.q+1+5.5.M+N+b.t+`+b.q+w@h$i$j$T#k$_$-$O#:#l$4#_#",
"E@I#9#l$d#I#I $.8.%+H+2+Z+J+K+L+}+b.q+1+5.5.M+N+b.t+`+b.q+ @9+.@a+m$I#*#=#N#*@p R#,#",
"-$U@H#n$,#{$I $.8.%+H+2+Z+J+K+L+}+b.q+1+5.5.M+N+b.t+`+b.q+ @w..@a+o$P@)$W@T@L@9#p$,#",
"q$l$3#~$e#2$r$$.8.%+H+2+Z+J+K+L+}+b.q+1+5.5.M+N+b.t+`+b.q+ @w..@h.s$/#<#;# #r@Z#F@Q@",
"@#X#t$u$f#s#v${+8.%+H+=.I+|@b.p+K+*.|+1+2+*.w$s+5.6.O+5.q+S#w.x$y$z$A$B$>#>#p$F@C$D$",
"Q@_#_#Q@Q@@#E$F$8.G$H$I$J$K$Z+L$Z+I+M$N$O$I+P$Q$I+M+R$I+M$S$H.T$E$U$e#,#W#y#,#Q@D$V$"};
