/* XPM */
static char * gate_xpm[] = {
"42 42 353 2",
"  	c #312D29",
". 	c #322E29",
"+ 	c #312D28",
"@ 	c #282422",
"# 	c #2B2724",
"$ 	c #262221",
"% 	c #2E2A26",
"& 	c #2A2623",
"* 	c #2F2B27",
"= 	c #211D1D",
"- 	c #221E1D",
"; 	c #292522",
"> 	c #2A2624",
", 	c #262220",
"' 	c #292523",
") 	c #272321",
"! 	c #302C28",
"~ 	c #2C2825",
"{ 	c #252120",
"] 	c #2F2B26",
"^ 	c #2C2824",
"/ 	c #24201F",
"( 	c #272422",
"_ 	c #282421",
": 	c #221E1E",
"< 	c #2D2926",
"[ 	c #272320",
"} 	c #231F1E",
"| 	c #201C1D",
"1 	c #1F1C1C",
"2 	c #2A1B1A",
"3 	c #2C1A18",
"4 	c #2B1917",
"5 	c #301C1A",
"6 	c #75453E",
"7 	c #75463E",
"8 	c #77463F",
"9 	c #4D2D29",
"0 	c #231514",
"a 	c #2B1A19",
"b 	c #221D1C",
"c 	c #1F1B1C",
"d 	c #332F29",
"e 	c #252220",
"f 	c #2E2320",
"g 	c #37201D",
"h 	c #38201E",
"i 	c #1F1413",
"j 	c #653B35",
"k 	c #72433D",
"l 	c #6E413A",
"m 	c #2A1818",
"n 	c #522E2F",
"o 	c #532E30",
"p 	c #341C1E",
"q 	c #603933",
"r 	c #6D403A",
"s 	c #221515",
"t 	c #30201E",
"u 	c #2D2A25",
"v 	c #2D2925",
"w 	c #2E2A25",
"x 	c #221A1B",
"y 	c #402522",
"z 	c #361F1D",
"A 	c #462925",
"B 	c #71433D",
"C 	c #432724",
"D 	c #472729",
"E 	c #522D2F",
"F 	c #4F2C2E",
"G 	c #221315",
"H 	c #462729",
"I 	c #482829",
"J 	c #2D191B",
"K 	c #452628",
"L 	c #512D2F",
"M 	c #4E2B2D",
"N 	c #321D1C",
"O 	c #70423C",
"P 	c #57322E",
"Q 	c #2D1A19",
"R 	c #412622",
"S 	c #2F2421",
"T 	c #2D2924",
"U 	c #231F1F",
"V 	c #242020",
"W 	c #794840",
"X 	c #6A3F38",
"Y 	c #301B1D",
"Z 	c #522D30",
"` 	c #301B1C",
" .	c #3B2022",
"..	c #432527",
"+.	c #412426",
"@.	c #1C0E15",
"#.	c #170C14",
"$.	c #140B11",
"%.	c #110B0F",
"&.	c #170B13",
"*.	c #3A2022",
"=.	c #402325",
"-.	c #251517",
";.	c #3C2123",
">.	c #5B3630",
",.	c #7C4A41",
"'.	c #422723",
").	c #231E1E",
"!.	c #292623",
"~.	c #5C3531",
"{.	c #3F2325",
"].	c #3F2324",
"^.	c #261517",
"/.	c #160B13",
"(.	c #180B15",
"_.	c #140C10",
":.	c #3D1F26",
"<.	c #3E2027",
"[.	c #361C23",
"}.	c #2D161E",
"|.	c #3F2027",
"1.	c #231317",
"2.	c #190B15",
"3.	c #180B14",
"4.	c #1C1113",
"5.	c #3E2224",
"6.	c #2E191B",
"7.	c #4F2D2A",
"8.	c #75463F",
"9.	c #272421",
"0.	c #2B2723",
"a.	c #302C27",
"b.	c #25211F",
"c.	c #2D1A18",
"d.	c #73443D",
"e.	c #462629",
"f.	c #09090B",
"g.	c #130B11",
"h.	c #1C0C17",
"i.	c #120B10",
"j.	c #3A1E24",
"k.	c #412228",
"l.	c #2A151C",
"m.	c #502C2E",
"n.	c #48272B",
"o.	c #3C1F26",
"p.	c #522E30",
"q.	c #341B21",
"r.	c #3C1F25",
"s.	c #422328",
"t.	c #3F2127",
"u.	c #1B0C17",
"v.	c #07090A",
"w.	c #3B2023",
"x.	c #6F413C",
"y.	c #432723",
"z.	c #272322",
"A.	c #2C2925",
"B.	c #271D1C",
"C.	c #482A26",
"D.	c #2C191A",
"E.	c #150B12",
"F.	c #361B22",
"G.	c #46252A",
"H.	c #301820",
"I.	c #49282B",
"J.	c #331822",
"K.	c #47262B",
"L.	c #381C25",
"M.	c #4B292C",
"N.	c #4E2B2E",
"O.	c #2C151E",
"P.	c #45252A",
"Q.	c #190C14",
"R.	c #452825",
"S.	c #342623",
"T.	c #2C2926",
"U.	c #2D1F1C",
"V.	c #613933",
"W.	c #3B2122",
"X.	c #180C14",
"Y.	c #402128",
"Z.	c #3A1D25",
"`.	c #49282C",
" +	c #502C2F",
".+	c #321822",
"++	c #381C24",
"@+	c #4A292C",
"#+	c #341923",
"$+	c #1D0D18",
"%+	c #321B1D",
"&+	c #5D3632",
"*+	c #3B2521",
"=+	c #23201E",
"-+	c #391D25",
";+	c #331923",
">+	c #1D0C17",
",+	c #6E413B",
"'+	c #1E1B1B",
")+	c #331823",
"!+	c #1F1C1B",
"~+	c #4C2A2D",
"{+	c #2B1320",
"]+	c #2D1420",
"^+	c #26121B",
"/+	c #0C0A0C",
"(+	c #312E29",
"_+	c #24211F",
":+	c #2D151F",
"<+	c #24101B",
"[+	c #110B0E",
"}+	c #100B0E",
"|+	c #0B0A0C",
"1+	c #262321",
"2+	c #2D2A26",
"3+	c #4A282C",
"4+	c #391D24",
"5+	c #190D13",
"6+	c #0F0B0D",
"7+	c #0A0A0B",
"8+	c #322E28",
"9+	c #72443D",
"0+	c #502D2F",
"a+	c #1B0E14",
"b+	c #180C13",
"c+	c #3B2123",
"d+	c #281A1A",
"e+	c #5A3530",
"f+	c #371F20",
"g+	c #4F2B2E",
"h+	c #2F1521",
"i+	c #371B24",
"j+	c #1F0E18",
"k+	c #2F1A1C",
"l+	c #57322F",
"m+	c #3B2724",
"n+	c #1E1B1A",
"o+	c #1E1A1A",
"p+	c #251918",
"q+	c #502E2A",
"r+	c #311B1D",
"s+	c #1E0D18",
"t+	c #291719",
"u+	c #4C2C29",
"v+	c #362522",
"w+	c #1B1718",
"x+	c #171414",
"y+	c #110A0F",
"z+	c #30181F",
"A+	c #301722",
"B+	c #201C1C",
"C+	c #1A1717",
"D+	c #151212",
"E+	c #240F1C",
"F+	c #1C1919",
"G+	c #1C1818",
"H+	c #1F1B1B",
"I+	c #221F1C",
"J+	c #1D1A1A",
"K+	c #0E0B0C",
"L+	c #220F1A",
"M+	c #191616",
"N+	c #1D1919",
"O+	c #1D0E16",
"P+	c #28111D",
"Q+	c #28111E",
"R+	c #1B1717",
"S+	c #151313",
"T+	c #161212",
"U+	c #3D2026",
"V+	c #4C2A2C",
"W+	c #201215",
"X+	c #331C1E",
"Y+	c #181414",
"Z+	c #271618",
"`+	c #1E0F16",
" @	c #1F0D18",
".@	c #161313",
"+@	c #141111",
"@@	c #2A1A18",
"#@	c #683D37",
"$@	c #201116",
"%@	c #27111D",
"&@	c #1D0E17",
"*@	c #361E20",
"=@	c #643B36",
"-@	c #3E2421",
";@	c #181515",
">@	c #171313",
",@	c #191515",
"'@	c #201817",
")@	c #3D2321",
"!@	c #371C23",
"~@	c #190D14",
"{@	c #211118",
"]@	c #201214",
"^@	c #3A211F",
"/@	c #2A1D1C",
"(@	c #1B1818",
"_@	c #2E1521",
":@	c #1D0C18",
"<@	c #1A1616",
"[@	c #140B12",
"}@	c #361B23",
"|@	c #160C12",
"1@	c #0A090B",
"2@	c #29121E",
"3@	c #0E0B0D",
"4@	c #2B121F",
"5@	c #26111C",
"6@	c #200F18",
"7@	c #141212",
"8@	c #4D2A2D",
"9@	c #432429",
"0@	c #1B0C16",
"a@	c #1B1819",
"b@	c #2A1918",
"c@	c #6A3F39",
"d@	c #371E20",
"e@	c #663C37",
"f@	c #3F2521",
"g@	c #201919",
"h@	c #231416",
"i@	c #1E1213",
"j@	c #37201E",
"k@	c #271C1B",
"l@	c #201D1D",
"m@	c #291817",
"n@	c #623A34",
"o@	c #391C25",
"p@	c #6E403B",
"q@	c #673D36",
"r@	c #2D1D1B",
"s@	c #14110F",
"t@	c #140F0C",
"u@	c #623836",
"v@	c #5E3634",
"w@	c #100A0F",
"x@	c #2C161D",
"y@	c #3B1E26",
"z@	c #27141B",
"A@	c #341A22",
"B@	c #221118",
"C@	c #321921",
"D@	c #29151C",
"E@	c #3A1E25",
"F@	c #26131A",
"G@	c #351B22",
"H@	c #231118",
"I@	c #120A10",
"J@	c #5C3433",
"K@	c #2D1A1A",
"L@	c #110B04",
"  . . . . . + @ @ + . # $ % & $ * . . + @ = - - ; + . > , % ' ) ! . . . . ~ { % . . ",
"& ] . . . . + @ @   . ^ / ( { $ * . . + _ { ' { ; . . # / _ { ) ! . . . . ~ / _ % . ",
": #   . . . + @ ) < % ; : = = , * . . + _ $ # , ) % % @ = = = [ ! . . . . ~ } { ~ . ",
": #   . . . + @ : / { } = | 1 2 3 4 5 6 7 7 8 9 0 3 3 a b | c , ! . . . . ~ { ^ + . ",
": # . . . d ! _ | c e f g h i j k l m n o o o p q k k r s g g t ~ u + . . ~ / ) % . ",
": @ v v v w ~ , x y z A k B C D E F G H D D I J K E L M N O B P Q R S T v ; : = &   ",
"U V { / U U U / 3 W X Y Z Z `  ...+.@.#.$.%.#.&.*.....=.-.L L ;.>.,.'.- / } = U #   ",
"< < & } = | ).!.3 7 ~.-.{.].^./.(._.:.<.[.}.|.|.1./.2.3.4.5.].6.7.8.'.9.{ | } 0.a.. ",
". d ] b.e , U @ c.d.e.f.g.h.i.j.k.l.m.n n.o.p.p.q.r.s.t._.u./.v.w.x.y.^ z.= : & * . ",
"! ! A.{ & # / / B.C.D.E.F.G.H.I.L J.m.L K.o.E E L.M.E N.O.P.r.Q.-.R.S.T.$ : / { ^ . ",
") ) , } { { U & U.V.W.X.Y.p.Z.`. +.+m.L K.o.E E ++@+L N.#+L K.$+%+&+*+=+} ) v % a.. ",
"; ; ' ' ' ) / < 3 k H 3.Y.p.-+`. +.+m.L K.o.E E ++@+L N.;+L K.>+w.,+y.'+= ;   d . . ",
"+ + + +   v { < 3 k H 3.Y.p.-+`. +.+m.L K.o.E E ++@+L N.)+m.G.h.w.,+y.!+= ) % * + . ",
". . . . . w , ~ 3 k H 3.Y.p.-+`. +.+m.L K.o.E E ++@+L ~+{+]+^+/+w.,+y.'+: / { $ ~ (+",
". . . . . v _+) 3 k H 3.Y.p.-+`. +.+m.L K.o.E E ++@+~+:+<+[+}+|+w.,+y.1+# ) = = &   ",
". . . . . 2+U = 3 k H 3.Y.p.-+`. +.+m.L K.o.E E ++3+4+5+6+6+6+7+w.,+y.v . ~ } { ^ . ",
"+ + + + 8+v U = c.9+H 3.Y.p.-+`. +.+m.L K.o.E E ++@+0+4+a+b+Q.i.c+x.y.v . ~ { # + . ",
"; ; ; ; & ) : = d+e+f+X.Y.p.-+`. +.+m.L K.o.E E ++@+L g+h+o.i+j+k+l+m+* . ~ / _ % . ",
"- { $ : !+n+o+o+p+q+r+Q.Y.o Z.`. +.+m.L K.o.E E ++@+L N.#+E K.s+t+u+v+^ < ' : - &   ",
"- ' ^ } w+x+x+x+c.d.D y+z+t.A+3+ +.+m.L K.o.E E ++@+L N.;+L K.h.c+x.y.1 U : B+= ; * ",
"= { 1+- C+D+D+D+3 k H |+_.Q.E+3+ +.+m.L K.o.E E ++@+L N.;+L K.>+ .,+y.F+= o+G+H+- I+",
"J+H+= B+C+D+D+D+3 k H /+6+K+L+3+ +.+m.L K.o.E E ++@+L N.;+L K.>+ .,+y.F+= '+G+H+F+D+",
"M+N+= B+C+D+D+D+3 k H |+O+P+Q+3+ +.+m.L K.o.E E ++@+L N.J.0+K.>+ .,+y.F+= B+H+H+R+D+",
"o+B+= B+R+S+D+T+3 k H &.U+F ++`. +.+m.L K.o.E E ++@+L V+W+X+P.>+ .,+y.F+= o+C+M+Y+D+",
"N+N+o+B+o+R+R+R+3 k H 3.Y.p.-+`. +.+m.L K.o.E E ++@+F Z+@+..`+ @w.,+y.F+= N+.@+@D+D+",
".@D+M+H+B+H+o+o+@@#@=.X.Y.p.-+`. +.+m.L K.o.E E ++@+F $@%@<+&@j+*@=@-@J+= o+;@x+>@D+",
"D+D+M+H+F+;@;@,@'@)@-.Q.Y.p.-+`. +.+m.L K.o.E E ++@+ +!@~@{@)+j+]@^@/@B+= B+'+o+R+D+",
"(@(@N+B+C+D+D+D+c.9+H 3.Y.p.-+`. +.+m.L K.o.E E ++@+L g+_@k.K.h.c+x.y.F+o+G+N+B+F+.@",
"'+1 = B+C+D+D+D+3 k H 3.Y.p.-+`. +.+m.L K.o.E E ++@+L N.#+E K.:@ .,+y.F+<@D+x+o+F+.@",
",@o+= B+(@.@.@.@3 k H 3.Y.p.-+`. +.+m.L K.o.E E ++@+L N.#+N.!@[@w.,+y.F+<@T+;@'+F+.@",
"F+H+= = o+F+N+N+3 k H 3.Y.p.-+`. +.+m.L K.o.E E ++@+L N.h+}@|@1@w.,+y.F+'+F+N+B+F+.@",
"o+o+H+= = B+'+o+3 k H 3.Y.p.-+`. +.+m.L K.o.E E ++@+L N.2@|@3@|+w.,+y.F+H+o+o+o+C+T+",
"x+>@<@B+= o+;@x+3 k H 3.Y.p.-+`. +.+m.L K.o.E E ++@+L N.4@5@6@1@w.,+y.F+R+x+x+x+.@D+",
"7@+@,@H+= J+x+D+3 k H 3.Y.p.-+`. +.+m.L K.o.E E ++@+L N..+8@9@0@w.,+y.F+<@D+D+D+D+D+",
"M+M+G+B+= o+x+D+3 k H 3.Y.p.-+`. +.+m.L K.o.E E ++@+L N.;+L K.>+ .,+y.a@M+7@D+D+D+D+",
"H+H+B+= = o+;@x+b@c@+.X.Y.p.-+`. +.+m.L K.o.E E ++@+L N.;+L K.>+d@e@f@F+R+x+x+x+.@D+",
"<@o+= = = B+o+o+g@^@h@Q.Y.p.-+`. +.+m.L K.o.E E ++@+L N.;+L K.s+i@j@k@c H+o+J+J+C+.@",
"(@'+B+o+N+'+B+= 3 k H 3.Y.p.-+`. +.+m.L K.o.E E ++@+L N.;+L K.>+w.,+y.F+'+'+= = F+.@",
"H+l@H+;@.@C+B+= 3 k H 3.Y.p.-+`. +.+m.L K.o.E E ++@+L N.;+L K.>+ .,+y.a@(@G+B+B+(@.@",
"M+o+o+x++@<@B+= m@k H 3.Y.p.-+`. +.+m.L K.o.E E ++@+L N.;+L K.>+ .,+R G+H+1 B+R+x+D+",
"D+M+C+.@D+x+(@F+n@d.H 3.Y.o Z.3+L J. +n n.o.p.n o@M.E F #+E K.:@ .p@q@r@(@F+(@x+s@t@",
"D+D+D+D+D+D+.@.@u@v@H w@x@y@z@A@-+B@-+Z.C@D@E@Z.F@G@Z.++H@Z.C@I@;.J@u@K@D+.@.@D+t@L@"};
