/* XPM */
static char * heroes_xpm[] = {
"42 42 113 2",
"  	c #312D29",
". 	c #322E29",
"+ 	c #312D28",
"@ 	c #282422",
"# 	c #2B2724",
"$ 	c #262221",
"% 	c #2E2A26",
"& 	c #2A2623",
"* 	c #2F2B27",
"= 	c #211D1D",
"- 	c #221E1D",
"; 	c #292522",
"> 	c #2A2624",
", 	c #262220",
"' 	c #292523",
") 	c #272321",
"! 	c #302C28",
"~ 	c #2C2825",
"{ 	c #252120",
"] 	c #2F2B26",
"^ 	c #2C2824",
"/ 	c #24201F",
"( 	c #272422",
"_ 	c #282421",
": 	c #221E1E",
"< 	c #2D2926",
"[ 	c #272320",
"} 	c #231F1E",
"| 	c #2E2A27",
"1 	c #2F2C27",
"2 	c #272421",
"3 	c #25211F",
"4 	c #231F1F",
"5 	c #24211F",
"6 	c #332F29",
"7 	c #201C1D",
"8 	c #262321",
"9 	c #2B2825",
"0 	c #2D2925",
"a 	c #2E2A25",
"b 	c #FFEAB4",
"c 	c #242020",
"d 	c #302C27",
"e 	c #262120",
"f 	c #231E1E",
"g 	c #292623",
"h 	c #C8B174",
"i 	c #2B2723",
"j 	c #252220",
"k 	c #2C2925",
"l 	c #272322",
"m 	c #24201E",
"n 	c #120022",
"o 	c #FFF1DB",
"p 	c #FBFFE2",
"q 	c #2E5887",
"r 	c #FCDCA0",
"s 	c #2A2723",
"t 	c #EFE2CE",
"u 	c #312E29",
"v 	c #8AD4E4",
"w 	c #2D2A26",
"x 	c #211E1D",
"y 	c #242120",
"z 	c #358AD8",
"A 	c #CCC1B0",
"B 	c #282522",
"C 	c #5FCDE4",
"D 	c #322E28",
"E 	c #3F4D5A",
"F 	c #235D91",
"G 	c #4CA2B4",
"H 	c #211C1D",
"I 	c #8F563B",
"J 	c #1F1C1B",
"K 	c #1E1B1A",
"L 	c #1E1A1A",
"M 	c #201C1C",
"N 	c #1F1C1C",
"O 	c #9D3E47",
"P 	c #1B1718",
"Q 	c #171414",
"R 	c #191515",
"S 	c #1D1A1A",
"T 	c #1C1819",
"U 	c #1A1717",
"V 	c #151212",
"W 	c #1D1919",
"X 	c #161313",
"Y 	c #1C1818",
"Z 	c #1F1B1B",
"` 	c #1A1616",
" .	c #191616",
"..	c #221F1C",
"+.	c #6A402C",
"@.	c #1C1919",
"#.	c #181414",
"$.	c #1E1B1B",
"%.	c #2767A1",
"&.	c #1B1717",
"*.	c #151313",
"=.	c #161212",
"-.	c #1B1818",
";.	c #141111",
">.	c #181515",
",.	c #171313",
"'.	c #A3C2DF",
").	c #89363E",
"!.	c #141212",
"~.	c #201D1D",
"{.	c #14110F",
"].	c #140F0C",
"^.	c #110B04",
"  . . . . . + @ @ + . # $ % & $ * . . + @ = - - ; + . > , % ' ) ! . . . . ~ { % . . ",
"& ] . . . . + @ @   . ^ / ( { $ * . . + _ { ' { ; . . # / _ { ) ! . . . . ~ / _ % . ",
": #   . . . + @ ) < % ; : = = , * . . + _ $ # , ) % % @ = = = [ ! . . . . ~ } { ~ . ",
": #   . . . + @ : / { / } : = { | + + 1 2 } 3 4 / { 5 } } : = ) ! . . . . ~ { ^ + . ",
": # . . . 6 ! _ 7 : ' ~ ~ # ) 4 ) ; ; @ / { # ~ ~ & / 8 9 # , ) ! . . . . ~ / ) % . ",
": @ 0 0 0 a ~ , 7 / % . . + & = - 3 b b b b b . . * $ &     ' { ^ % 0 a 0 ; : = &   ",
"4 c { / 4 4 4 / : / % . . . & = b b b b b b b b b * $ ' ! d ; : 4 3 , e / } = 4 #   ",
"< < & } = 7 f g @ { % . .   & = b b b h b b h b b * $ / ) ) / = - @ 0 ~ { 7 } i d . ",
". 6 ] 3 j , 4 @ @ / ; ~ ~ ~ ) b b b b h b b h b b b / = 7 = , , / k . + l = : & * . ",
"! ! k { & # / / 3 / 3 / m 3 3 b b b b b h b h b b b 4 } = : ' # 3 # ! | $ : / { ^ . ",
") ) , } { { 4 & % % % @ 5 # b b b b b n n o o n b b # @ = = { , } { ) , } ) 0 % d . ",
"; ; ' ' ' ) / < . . . # , * b b b b b p q o o q b b ; ) } @ ' ) } $ ) : = ;   6 . . ",
"+ + + +   0 { < . . . # , * b b b b b r q o o q b b { 4 , | . 0 { & s } = ) % * + . ",
". . . . . a , ~ . . + # , * b b b b b t o o o t b b b ; , * . % / / 3 : : / { $ ~ u ",
". . . . . 0 5 ) & & & , , * b b b b b b o o o t b b b # / @ & ) v ) > # # ) = = &   ",
". . . . . w 4 = x : { / y ~ b b b z b A A A z z z b b B - : 3 C v v C . . ~ } { ^ . ",
"+ + + + D 0 4 = = } # ' } / b b z z z z A A E z F b b / : : ' C C v C G . ~ { # + . ",
"; ; ; ; & ) : = = } ) , - = H b z z z z F z F F F F = 8 I / , C C C C . . ~ / _ % . ",
"- { $ : J K L L L L M M L L N , b F F F F z O h F F = I # C C = G C C G < ' : - &   ",
"- ' ^ } P Q Q Q Q R L S Q Q T { ] F F F F F I z ~ I I I } = M M G G G 4 4 : M = ; * ",
"= { 8 - U V V V V Q L W X V Y } ) @ F F F I z I ~ = Y S Z Y ` ` `  .T M = L Y Z - ..",
"S Z = M U V V V V Q L L U U L = z z z F o z +.I B = @.L Z #.V V V V  .M = $.Y Z @.V ",
" .W = M U V V V V Q L = M M M z z I I +.o o %.z z M Z M Z #.V V V V  .M = M Z Z &.V ",
"L M = M &.*.V =.V Q L = = %.I +.+.I z z z z z z z z  .L Z #.V V V V  .M = L U  .#.V ",
"W W L M L &.&.&.&.Y Z +.+.I %.z z z z z z z z z W z %.-.Z #.;.V V V  .M = W X ;.V V ",
"X V  .Z M Z L +.+.+.+.S %.%.%.z z z z z z z %.%.%.%.%.%.Z ` #.#.Q #.-.M = L >.Q ,.V ",
"V V  .Z @.+.+.R Y = = F %.%.%.%.%.z z z z %.%.%.%.%.%.%.F Z L L L L M = = M $.L &.V ",
"-.-.W M U V V V ` M S z F F %.%.%.%.%.%.%.%.%.'.%.F F F z M L S = = = M L Y W M @.X ",
"$.N = M U V V V ` F z z z z F %.%.%.%.%.%.F '.'.).F z z z z z Y M = = M ` V Q L @.X ",
"R L = M -.X X X F F z z z z z F F F F F F F O O O F F z z z z M = = = M ` =.>.$.@.X ",
"@.Z = = L @.W F F F F z F F z z z z z z '.'.O '.'.'.F z z F F F = W W M $.@.W M @.X ",
"L L Z = = M $.F F F F F F F z z z z z z '.'.'.'.O O '.z z F F F M @.Y M Z L L L U =.",
"Q ,.` M = L >.F F F F F F F F z z z z F '.'.O O '.'.'.F F F F F M M M M &.Q Q Q X V ",
"!.;.R Z = S Q V F F F F F F F F F z F F '.F F F '.'.'.F F F F F M = = M ` V V V V V ",
" . .Y M = L Q V V F F F F F F F F F F F '.F F F F F F F F F F @.M Z Z Z  .!.V V V V ",
"Z Z M = = L >.Q Q >.$.F F F F F F F F F F F F F F F F F F M M M M Y -.Z &.Q Q Q X V ",
"` L = = = M L L S L M @.X V F F F F F F F F F F F F F F Y M = = = Z $.M Z L S S U X ",
"-.$.M L W $.M = = = = @.X V V V X W M L M Z @.Z W V V V >.Z = M L W L M $.$.= = @.X ",
"Z ~.Z >.X U M = M M M @.X V V V X W $.&.L M N ~.W X V V >.Z = $.>.X U Z -.Y M M -.X ",
" .L L Q ;.` M = L &.$.@.X V V V X @.M $.M L &.L W X V V >.Z = L Q !. .Z Z N M &.Q V ",
"V  .U X V Q -.@. .X `  .V V V V V  .@.@.Y  .Q U ` V V V Q &.@.U X V #.-.@.@.-.Q {.].",
"V V V V V V X X V V V V V V V V V V X X X V V X =.V V V V X X =.V V V X X X X V ].^."};
