/* XPM */
static char * heroes left_xpm[] = {
"42 42 113 2",
"  	c #322E29",
". 	c #2E2A26",
"+ 	c #252120",
"@ 	c #2C2825",
"# 	c #302C28",
"$ 	c #272321",
"% 	c #292523",
"& 	c #262220",
"* 	c #2A2624",
"= 	c #312D28",
"- 	c #292522",
"; 	c #221E1D",
"> 	c #211D1D",
", 	c #282422",
"' 	c #2F2B27",
") 	c #262221",
"! 	c #2A2623",
"~ 	c #2B2724",
"{ 	c #312D29",
"] 	c #282421",
"^ 	c #24201F",
"/ 	c #272422",
"( 	c #2C2824",
"_ 	c #2F2B26",
": 	c #231F1E",
"< 	c #272320",
"[ 	c #221E1E",
"} 	c #2D2926",
"| 	c #24211F",
"1 	c #231F1F",
"2 	c #25211F",
"3 	c #272421",
"4 	c #2F2C27",
"5 	c #2E2A27",
"6 	c #2B2825",
"7 	c #262321",
"8 	c #201C1D",
"9 	c #332F29",
"0 	c #2D2925",
"a 	c #2E2A25",
"b 	c #FFEAB4",
"c 	c #262120",
"d 	c #302C27",
"e 	c #242020",
"f 	c #2B2723",
"g 	c #C8B174",
"h 	c #292623",
"i 	c #231E1E",
"j 	c #272322",
"k 	c #2C2925",
"l 	c #252220",
"m 	c #24201E",
"n 	c #120022",
"o 	c #FFF1DB",
"p 	c #2E5887",
"q 	c #FBFFE2",
"r 	c #2A2723",
"s 	c #FCDCA0",
"t 	c #312E29",
"u 	c #EFE2CE",
"v 	c #8AD4E4",
"w 	c #5FCDE4",
"x 	c #282522",
"y 	c #358AD8",
"z 	c #CCC1B0",
"A 	c #242120",
"B 	c #211E1D",
"C 	c #2D2A26",
"D 	c #4CA2B4",
"E 	c #235D91",
"F 	c #3F4D5A",
"G 	c #322E28",
"H 	c #8F563B",
"I 	c #211C1D",
"J 	c #9D3E47",
"K 	c #1F1C1C",
"L 	c #1E1A1A",
"M 	c #201C1C",
"N 	c #1E1B1A",
"O 	c #1F1C1B",
"P 	c #1C1819",
"Q 	c #171414",
"R 	c #1D1A1A",
"S 	c #191515",
"T 	c #1B1718",
"U 	c #221F1C",
"V 	c #1F1B1B",
"W 	c #1C1818",
"X 	c #191616",
"Y 	c #1A1616",
"Z 	c #151212",
"` 	c #161313",
" .	c #1D1919",
"..	c #1A1717",
"+.	c #1C1919",
"@.	c #1E1B1B",
"#.	c #181414",
"$.	c #6A402C",
"%.	c #1B1717",
"&.	c #2767A1",
"*.	c #161212",
"=.	c #151313",
"-.	c #141111",
";.	c #1B1818",
">.	c #171313",
",.	c #181515",
"'.	c #A3C2DF",
").	c #89363E",
"!.	c #141212",
"~.	c #201D1D",
"{.	c #140F0C",
"].	c #14110F",
"^.	c #110B04",
"    . + @         # $ % . & *   = - ; ; > , =     ' ) ! . ) ~   = , , =           { ",
"  . ] ^ @         # $ + ] ^ ~     - + % + ] =     ' ) + / ^ (   { , , =         _ ! ",
"  @ + : @         # < > > > , . . $ & ~ ) ] =     ' & > > [ - . } $ , =       { ~ [ ",
"  = ( + @         # $ > [ : : | + ^ 1 2 : 3 4 = = 5 + > [ : ^ + ^ [ , =       { ~ [ ",
"  . $ ^ @         # $ & ~ 6 7 ^ ! @ @ ~ + ^ , - - $ 1 $ ~ @ @ % [ 8 ] # 9       ~ [ ",
"{ ! > [ - 0 a 0 . ( + % { { ! ) '     b b b b b 2 ; > ! =     . ^ 8 & @ a 0 0 0 , [ ",
"{ ~ 1 > : ^ c & 2 1 [ - d # % ) ' b b b b b b b b b > !       . ^ [ ^ 1 1 1 ^ + e 1 ",
"  d f : 8 + @ 0 , ; > ^ $ $ ^ ) ' b b g b b g b b b > ! {     . + , h i 8 > : ! } } ",
"  ' ! [ > j =   k ^ & & > 8 > ^ b b b g b b g b b b b $ @ @ @ - ^ , , 1 & l 2 _ 9   ",
"  ( + ^ [ ) 5 # ~ 2 ~ % [ > : 1 b b b g b g b b b b b 2 2 m ^ 2 ^ 2 ^ ^ ~ ! + k # # ",
"  d . 0 $ : & $ + : & + > > , ~ b b n o o n n b b b b b ~ | , . . . ! 1 + + : & $ $ ",
"    9 { - > [ $ ) : $ % , : $ - b b p o o p q b b b b b ' & ~       } ^ $ % % % - - ",
"  = ' . $ > : r ! + 0   5 & 1 + b b p o o p s b b b b b ' & ~       } + 0 { = = = = ",
"t @ ) + ^ [ [ 2 ^ ^ .   ' & - b b b u o o o u b b b b b ' & ~ =     @ & a           ",
"{ ! > > $ ~ ~ * $ v $ ! , ^ ~ b b b u o o o b b b b b b ' & & ! ! ! $ | 0           ",
"  ( + : @     w v v w 2 [ ; x b b y y y z z z b y b b b @ A ^ + [ B > 1 C           ",
"  = ~ + @   D w v w w % [ [ ^ b b E y F z z y y y y b b ^ : % ~ : > > 1 0 G = = = = ",
"  . ] ^ @     w w w w & ^ H 7 > E E E E y E y y y y b I > ; & $ : > > [ $ ! - - - - ",
"{ ! ; [ % } D w w D > w w ~ H > E E g J y E E E E b & K L L M M L L L L N O [ ) + ; ",
"' - > M [ 1 1 D D D M M > : H H H @ y H E E E E E _ + P Q Q R L S Q Q Q Q T : ( % ; ",
"U ; V W L > M P X Y Y Y W V R W > @ H y H E E E , $ : W Z `  .L Q Z Z Z Z ..; 7 + > ",
"Z +.V W @.> M X Z Z Z Z #.V L +.> x H $.y o E y y y > L ....L L Q Z Z Z Z ..M > V R ",
"Z %.V V M > M X Z Z Z Z #.V M V M y y &.o o $.H H y y M M M > L Q Z Z Z Z ..M >  .X ",
"Z #.X ..L > M X Z Z Z Z #.V L X y y y y y y y y H $.$.H &.> > L Q Z *.Z =.%.M > M L ",
"Z Z -.`  .> M X Z Z Z -.#.V ;.&.y  .y y y y y y y y y &.H $.$.V W %.%.%.%.L M L  . .",
"Z >.Q ,.L > M ;.#.Q #.#.Y V &.&.&.&.&.&.y y y y y y y &.&.&.R $.$.$.$.L V M V X Z ` ",
"Z %.L @.M > > M L L L L V E &.&.&.&.&.&.&.y y y y &.&.&.&.&.E > > W S $.$.+.V X Z Z ",
"` +.M  .W L M > > > R L M y E E E &.'.&.&.&.&.&.&.&.&.&.E E y R M Y Z Z Z ..M  .;.;.",
"` +.L Q Z Y M > > M W y y y y y E ).'.'.E &.&.&.&.&.&.E y y y y E Y Z Z Z ..M > K @.",
"` +.@.,.*.Y M > > > M y y y y E E J J J E E E E E E E y y y y y E E ` ` ` ;.M > L S ",
"` +.M  .+.@.M  . .> E E E y y E '.'.'.J '.'.y y y y y y E E y E E E E  .+.L > > V +.",
"*...L L L V M W +.M E E E y y '.J J '.'.'.'.y y y y y y E E E E E E E @.M > > V L L ",
"Z ` Q Q Q %.M M M M E E E E E '.'.'.J J '.'.E y y y y E E E E E E E E ,.L > M Y >.Q ",
"Z Z Z Z Z Y M > > M E E E E E '.'.'.E E E '.E E y E E E E E E E E E Z Q R > V S -.!.",
"Z Z Z Z !.X V V V M +.E E E E E E E E E E '.E E E E E E E E E E E Z Z Q L > M W X X ",
"Z ` Q Q Q %.V ;.W M M M M E E E E E E E E E E E E E E E E E E @.,.Q Q ,.L > > M V V ",
"` ..R R L V M @.V > > > M W E E E E E E E E E E E E E E Z ` +.M L R L L M > > > L Y ",
"` +.> > @.@.M L  .L M > V ,.Z Z Z  .V +.V M L M  .` Z Z Z ` +.> > > > M @. .L M @.;.",
"` ;.M M W ;.V ..` ,.@.> V ,.Z Z `  .~.K M L %.@. .` Z Z Z ` +.M M M > M ..` ,.V ~.V ",
"Z Q %.M K V V X !.Q L > V ,.Z Z `  .L %.L M @.M +.` Z Z Z ` +.@.%.L > M Y -.Q L L X ",
"{.].Q ;.+.+.;.#.Z ` ..+.%.Q Z Z Z Y ..Q X W +.+.X Z Z Z Z Z X Y ` X +.;.Q Z ` ..X Z ",
"^.{.Z ` ` ` ` Z Z Z *.` ` Z Z Z Z *.` Z Z ` ` ` Z Z Z Z Z Z Z Z Z Z ` ` Z Z Z Z Z Z "};
