/* XPM */
static char * items1_xpm[] = {
"42 42 414 2",
"  	c #312D29",
". 	c #322E29",
"+ 	c #312D28",
"@ 	c #282422",
"# 	c #2B2724",
"$ 	c #262221",
"% 	c #2E2A26",
"& 	c #2A2623",
"* 	c #2F2B27",
"= 	c #211D1D",
"- 	c #221E1D",
"; 	c #292522",
"> 	c #2A2624",
", 	c #262220",
"' 	c #292523",
") 	c #272321",
"! 	c #302C28",
"~ 	c #2C2825",
"{ 	c #252120",
"] 	c #2F2B26",
"^ 	c #2C2824",
"/ 	c #24201F",
"( 	c #272422",
"_ 	c #282421",
": 	c #221E1E",
"< 	c #2D2926",
"[ 	c #272320",
"} 	c #231F1E",
"| 	c #2E2A27",
"1 	c #2F2C27",
"2 	c #272421",
"3 	c #25211F",
"4 	c #231F1F",
"5 	c #24211F",
"6 	c #332F29",
"7 	c #201C1D",
"8 	c #262321",
"9 	c #2B2825",
"0 	c #2D2925",
"a 	c #2E2A25",
"b 	c #242020",
"c 	c #302C27",
"d 	c #262120",
"e 	c #231E1E",
"f 	c #292623",
"g 	c #2B2723",
"h 	c #252220",
"i 	c #2C2925",
"j 	c #272322",
"k 	c #24201E",
"l 	c #201C1C",
"m 	c #2A2723",
"n 	c #312E29",
"o 	c #2D2A26",
"p 	c #211E1D",
"q 	c #242120",
"r 	c #282522",
"s 	c #322E28",
"t 	c #211C1D",
"u 	c #2B2725",
"v 	c #1F1C1B",
"w 	c #1E1B1A",
"x 	c #1E1A1A",
"y 	c #1F1C1C",
"z 	c #1B1718",
"A 	c #171414",
"B 	c #191515",
"C 	c #1D1A1A",
"D 	c #211E1E",
"E 	c #2A192A",
"F 	c #291529",
"G 	c #1A1717",
"H 	c #151212",
"I 	c #1D1919",
"J 	c #524944",
"K 	c #4C4E48",
"L 	c #444E4F",
"M 	c #514E43",
"N 	c #38312F",
"O 	c #1A1616",
"P 	c #191616",
"Q 	c #1C1819",
"R 	c #1C1818",
"S 	c #1F1B1B",
"T 	c #221F1C",
"U 	c #332631",
"V 	c #22002C",
"W 	c #D5E280",
"X 	c #C4F0A0",
"Y 	c #A5F0BF",
"Z 	c #D5F086",
"` 	c #8B955A",
" .	c #432F42",
"..	c #1E1B1B",
"+.	c #1C1919",
"@.	c #382A36",
"#.	c #6D7149",
"$.	c #94A656",
"%.	c #C9F6AA",
"&.	c #CAFFAD",
"*.	c #C9FEAD",
"=.	c #A8C87A",
"-.	c #879251",
";.	c #423041",
">.	c #1B1717",
",.	c #151313",
"'.	c #161212",
").	c #3B2F32",
"!.	c #8A9A54",
"~.	c #C4E474",
"{.	c #AEFAC3",
"].	c #C5FCAF",
"^.	c #E0FB87",
"/.	c #B0FCC2",
"(.	c #BDEC94",
"_.	c #B0C966",
":.	c #3D2A38",
"<.	c #181414",
"[.	c #3D1D3F",
"}.	c #909D3F",
"|.	c #A4CD88",
"1.	c #B1FBC1",
"2.	c #C3E67A",
"3.	c #BBE167",
"4.	c #AEDB51",
"5.	c #C3E573",
"6.	c #B7F5AD",
"7.	c #ACECAF",
"8.	c #9BA739",
"9.	c #4E473B",
"0.	c #412C41",
"a.	c #161313",
"b.	c #141111",
"c.	c #360E3B",
"d.	c #9ABB42",
"e.	c #9BD47B",
"f.	c #8AE5AB",
"g.	c #B3DC5D",
"h.	c #AED94F",
"i.	c #A6D747",
"j.	c #B4DB55",
"k.	c #9AE296",
"l.	c #90DF9C",
"m.	c #A4C63F",
"n.	c #4F523A",
"o.	c #3C243D",
"p.	c #1B1818",
"q.	c #181515",
"r.	c #171313",
"s.	c #271D22",
"t.	c #291C22",
"u.	c #4D423C",
"v.	c #94C750",
"w.	c #8ED16D",
"x.	c #70C989",
"y.	c #9ED75E",
"z.	c #A3D753",
"A.	c #A6D647",
"B.	c #A0D75A",
"C.	c #82CE7C",
"D.	c #7BCC80",
"E.	c #9FD452",
"F.	c #5E683F",
"G.	c #4B3F3E",
"H.	c #22151F",
"I.	c #453444",
"J.	c #4A3F3B",
"K.	c #A4B944",
"L.	c #77CC86",
"M.	c #80B97A",
"N.	c #9B8D50",
"O.	c #78DEAA",
"P.	c #8DDC8E",
"Q.	c #A5D750",
"R.	c #7AE0A8",
"S.	c #91AE77",
"T.	c #929D5F",
"U.	c #66D190",
"V.	c #9FBB52",
"W.	c #8F9E41",
"X.	c #350F3B",
"Y.	c #2A2225",
"Z.	c #453244",
"`.	c #404446",
" +	c #7CC97E",
".+	c #8CA969",
"++	c #97A159",
"@+	c #A2A045",
"#+	c #93A770",
"$+	c #9DCB90",
"%+	c #A9F0AE",
"&+	c #94AC75",
"*+	c #9DA356",
"=+	c #9EA04C",
"-+	c #8EA064",
";+	c #7EC57D",
">+	c #6DAC70",
",+	c #350B3B",
"'+	c #2B2426",
")+	c #3D3E46",
"!+	c #71B981",
"~+	c #989A56",
"{+	c #A19B45",
"]+	c #A4A941",
"^+	c #9F9645",
"/+	c #A0B884",
"(+	c #A3DDB2",
"_+	c #A09A52",
":+	c #A3A342",
"<+	c #A3A542",
"[+	c #9E9046",
"}+	c #77B67E",
"|+	c #639F73",
"1+	c #463644",
"2+	c #45253C",
"3+	c #8B6547",
"4+	c #A0A042",
"5+	c #A5AB41",
"6+	c #A6B841",
"7+	c #9B9D44",
"8+	c #8C6949",
"9+	c #A4B541",
"0+	c #A5AE41",
"a+	c #A5AA41",
"b+	c #8D6F46",
"c+	c #795443",
"d+	c #37183A",
"e+	c #201D1D",
"f+	c #422C44",
"g+	c #7B8340",
"h+	c #909940",
"i+	c #8B7242",
"j+	c #A1AB41",
"k+	c #A5B542",
"l+	c #A6CF45",
"m+	c #9BB143",
"n+	c #8C7542",
"o+	c #A4CB44",
"p+	c #A6BE42",
"q+	c #A5B442",
"r+	c #A5B541",
"s+	c #8E7D42",
"t+	c #8C8041",
"u+	c #8E9C3F",
"v+	c #4C4240",
"w+	c #2E202C",
"x+	c #30003A",
"y+	c #84863F",
"z+	c #9CA042",
"A+	c #8B7841",
"B+	c #9B9E42",
"C+	c #A1B142",
"D+	c #A6C143",
"E+	c #9FBE46",
"F+	c #97A544",
"G+	c #8B7A41",
"H+	c #9DBA46",
"I+	c #A3C044",
"J+	c #A4BB43",
"K+	c #9EA442",
"L+	c #8D7E41",
"M+	c #918641",
"N+	c #9DA342",
"O+	c #4C3E3B",
"P+	c #240C26",
"Q+	c #141212",
"R+	c #31003A",
"S+	c #754F41",
"T+	c #8B6545",
"U+	c #8B7642",
"V+	c #8B6745",
"W+	c #969D45",
"X+	c #A4D345",
"Y+	c #8C6E45",
"Z+	c #8B6C44",
"`+	c #8A7641",
" @	c #8B6646",
".@	c #9DB946",
"+@	c #A0C346",
"@@	c #8A5E45",
"#@	c #8B7441",
"$@	c #8B7142",
"%@	c #896145",
"&@	c #45223B",
"*@	c #745D3F",
"=@	c #8B7442",
"-@	c #8A6F47",
";@	c #89684E",
">@	c #998249",
",@	c #947E45",
"'@	c #8B7741",
")@	c #998248",
"!@	c #8F714D",
"~@	c #896A4B",
"{@	c #8B7641",
"]@	c #897241",
"^@	c #452A3B",
"/@	c #7B6640",
"(@	c #927D44",
"_@	c #917D44",
":@	c #8E7047",
"<@	c #87554B",
"[@	c #9F9546",
"}@	c #9B8D45",
"|@	c #937E45",
"1@	c #9F9646",
"2@	c #8F6F49",
"3@	c #895E4A",
"4@	c #937F44",
"5@	c #8D7942",
"6@	c #917C44",
"7@	c #472D3B",
"8@	c #38123E",
"9@	c #7E6844",
"0@	c #947E48",
"a@	c #988149",
"b@	c #957748",
"c@	c #8C6445",
"d@	c #A1A143",
"e@	c #A09A45",
"f@	c #9E8D48",
"g@	c #A2A243",
"h@	c #937C44",
"i@	c #8F6A46",
"j@	c #9B834A",
"k@	c #8E7A43",
"l@	c #8F7B44",
"m@	c #937D48",
"n@	c #452C3C",
"o@	c #281429",
"p@	c #4B3A43",
"q@	c #51383C",
"r@	c #9B8549",
"s@	c #8A5B4E",
"t@	c #8A6146",
"u@	c #86534E",
"v@	c #948049",
"w@	c #A3A642",
"x@	c #885A4E",
"y@	c #8A5C48",
"z@	c #895C48",
"A@	c #854C4F",
"B@	c #897445",
"C@	c #42263B",
"D@	c #1F191A",
"E@	c #0D0605",
"F@	c #44213D",
"G@	c #906D4C",
"H@	c #895F4A",
"I@	c #885D47",
"J@	c #8B6146",
"K@	c #906B4C",
"L@	c #93784B",
"M@	c #958548",
"N@	c #916D4C",
"O@	c #8C6447",
"P@	c #8A5F46",
"Q@	c #875B49",
"R@	c #8F6C4B",
"S@	c #7E5D47",
"T@	c #350A3A",
"U@	c #42153E",
"V@	c #7E424D",
"W@	c #886445",
"X@	c #8A6744",
"Y@	c #8B6445",
"Z@	c #9A8149",
"`@	c #916F4C",
" #	c #844850",
".#	c #99804A",
"+#	c #906F46",
"@#	c #8B6544",
"##	c #8A6944",
"$#	c #7F484C",
"%#	c #6F3849",
"&#	c #37113C",
"*#	c #2C2427",
"=#	c #31272C",
"-#	c #4D3749",
";#	c #462845",
">#	c #3E113C",
",#	c #7C444B",
"'#	c #875D4A",
")#	c #864F4E",
"!#	c #854A4F",
"~#	c #84464F",
"{#	c #864C4F",
"]#	c #896946",
"^#	c #8A6D44",
"/#	c #83474F",
"(#	c #4C1F3E",
"_#	c #401A3F",
":#	c #482D46",
"<#	c #3A3334",
"[#	c #1E1918",
"}#	c #14110F",
"|#	c #140F0C",
"1#	c #352831",
"2#	c #32212F",
"3#	c #291429",
"4#	c #4E2D32",
"5#	c #553C31",
"6#	c #584A2D",
"7#	c #543234",
"8#	c #543035",
"9#	c #56432F",
"0#	c #57452E",
"a#	c #532E34",
"b#	c #311A2A",
"c#	c #2C1A2A",
"d#	c #342430",
"e#	c #1D1617",
"f#	c #0C0504",
"g#	c #110B04",
"  . . . . . + @ @ + . # $ % & $ * . . + @ = - - ; + . > , % ' ) ! . . . . ~ { % . . ",
"& ] . . . . + @ @   . ^ / ( { $ * . . + _ { ' { ; . . # / _ { ) ! . . . . ~ / _ % . ",
": #   . . . + @ ) < % ; : = = , * . . + _ $ # , ) % % @ = = = [ ! . . . . ~ } { ~ . ",
": #   . . . + @ : / { / } : = { | + + 1 2 } 3 4 / { 5 } } : = ) ! . . . . ~ { ^ + . ",
": # . . . 6 ! _ 7 : ' ~ ~ # ) 4 ) ; ; @ / { # ~ ~ & / 8 9 # , ) ! . . . . ~ / ) % . ",
": @ 0 0 0 a ~ , 7 / % . . + & = - 3 @ ) 4 @ + . . * $ &     ' { ^ % 0 a 0 ; : = &   ",
"4 b { / 4 4 4 / : / % . . . & = - # ! * ) _ + . . * $ ' ! c ; : 4 3 , d / } = 4 #   ",
"< < & } = 7 e f @ { % . .   & = : ~ . + @ _ + . . * $ / ) ) / = - @ 0 ~ { 7 } g c . ",
". 6 ] 3 h , 4 @ @ / ; ~ ~ ~ ) = - _ ~ # { { # ~ 0 # / = 7 = , , / i . + j = : & * . ",
"! ! i { & # / / 3 / 3 / k 3 3 / / 3 3 } } 3 { } } } 4 } = : ' # 3 # ! | $ : / { ^ . ",
") ) , } { { 4 & % % % @ 5 # % % % % & / f % ~ { l 4 # @ = = { , } { ) , } ) 0 % c . ",
"; ; ' ' ' ) / < . . . # , * . . . . % { 0 6 ! ) l } ; ) } @ ' ) } $ ) : = ;   6 . . ",
"+ + + +   0 { < . . . # , * . . . . a { & * < , } { { 4 , | . 0 { & m } = ) % * + . ",
". . . . . a , ~ . . + # , * . . . . a / 4 , , } ) % % ; , * . % / / 3 : : / { $ ~ n ",
". . . . . 0 5 ) & & & , , * . . . . % 4 = 5 ; 3 ; . . # / @ & ) } ) > # # ) = = &   ",
". . . . . o 4 = p : { / q ~ ] % % ] # } = $ ^ , 2 % % r - : 3 3 / ~ . . . ~ } { ^ . ",
"+ + + + s 0 4 = = } # ' } / 3 3 { , / - - / { 4 } / 3 / : : ' > { ~ . . . ~ { # + . ",
"; ; ; ; & ) : = = } ) , - = t 4 & ~ r k @ u # ^ ) = = 8 ; / , ) / i . . . ~ / _ % . ",
"- { $ : v w x x x x l l x x y , c . % { 0 . . s ^ : = @ # / = = : f % % < ' : - &   ",
"- ' ^ } z A A A A B x C D D D D D D D D E F F F 7 D D D D D D D l : } 4 4 : l = ; * ",
"= { 8 - G H H H H A x I D D D D D D D D J K L M N D D D D D D D O P Q l = x R S - T ",
"C S = l G H H H H A x x D D D D D D U V W X Y Z `  .D D D D D D H H P l = ..R S +.H ",
"P I = l G H H H H A x = D D D D D @.#.$.%.&.*.&.=.-.;.D D D D D H H P l = l S S >.H ",
"x l = l >.,.H '.H A x = D D D D D ).!.~.{.].^./.(._.:.D D D D D H H P l = x G P <.H ",
"I I x l x >.>.>.>.R S S D D D D [.}.|.1.2.3.4.5.6.7.8.9.0.D D D H H P l = I a.b.H H ",
"a.H P S l S x x S l = C D D D D c.d.e.f.g.h.i.j.k.l.m.n.o.D D D A <.p.l = x q.A r.H ",
"H H P S +.q.q.B R = = l D D s.t.u.v.w.x.y.z.A.B.C.D.E.F.G.H.D D x x l = = l ..x >.H ",
"p.p.I l G H H H O l C R D D I.J.K.L.M.N.O.P.Q.R.S.T.U.V.W.X.Y.D = = = l x R I l +.a.",
"..y = l G H H H O S P H D D Z.`. +.+++@+#+$+%+&+*+=+-+;+>+,+'+D l = = l O H A x +.a.",
"B x = l p.a.a.a.>.S P H D D Z.)+!+~+{+]+^+/+(+_+:+<+[+}+|+,+'+D = = = l O '.q...+.a.",
"+.S = = x +.I I S l x +.D D 1+2+3+4+]+5+6+7+8+9+0+a+]+b+c+d+e+D = I I l ..+.I l +.a.",
"x x S = = l ..x x S l l D f+g+h+i+j+k+k+l+m+n+o+p+q+r+s+t+u+v+w+l +.R l S x x x G '.",
"A r.O l = x q.A A B S C D x+y+z+A+B+C+D+E+F+G+H+I+J+K+L+M+N+O+P+l l l l >.A A A a.H ",
"Q+b.B S = C A H H A x S D R+S+T+U+V+W+X+Y+Z+`+ @.@+@@@#@$@%@&@P+l = = l O H H H H H ",
"P P R l = x A H H r.x l D R+*@=@U+#@-@;@>@,@'@)@!@~@#@{@{@]@^@P+l S S S P Q+H H H H ",
"S S l = = x q.A A q...I D x+/@(@'@_@:@<@[@}@|@1@2@3@4@'@5@6@7@P+l R p.S >.A A A a.H ",
"O x = = = l x x C x l +.D 8@9@0@5@a@b@c@d@e@f@g@h@i@j@k@l@m@n@o@= S ..l S x C C G a.",
"p...l x I ..l = = = = +.D D p@q@r@s@<@t@u@v@w@x@y@z@A@a@B@C@D@E@x I x l ....= = +.a.",
"S e+S q.a.G l = l l l +.D D Z.F@G@H@I@J@K@L@M@N@O@P@Q@R@S@T@'+E@q.a.G S p.R l l p.a.",
"P x x A b.O l = x >...+.D D Z.U@V@W@X@Y@Z@`@ #.#+#@###$#%#&#*#E@A Q+P S S y l >.A H ",
"H P G a.H A p.+.P a.O P D =#-#;#>#,#'#=@)#!#~#{#]#^#/#(#_#:#<#[#a.H <.p.+.+.p.A }#|#",
"H H H H H H a.a.H H H H D D 1#2#3#4#5#6#7#8#8#8#9#0#a#b#c#d#e#f#H H H a.a.a.a.H |#g#"};
