/* XPM */
static char * mob1_xpm[] = {
"42 42 275 2",
"  	c #312D29",
". 	c #322E29",
"+ 	c #312D28",
"@ 	c #282422",
"# 	c #2B2724",
"$ 	c #262221",
"% 	c #2E2A26",
"& 	c #2A2623",
"* 	c #2F2B27",
"= 	c #211D1D",
"- 	c #221E1D",
"; 	c #292522",
"> 	c #2A2624",
", 	c #262220",
"' 	c #292523",
") 	c #272321",
"! 	c #302C28",
"~ 	c #2C2825",
"{ 	c #252120",
"] 	c #2F2B26",
"^ 	c #2C2824",
"/ 	c #24201F",
"( 	c #272422",
"_ 	c #282421",
": 	c #221E1E",
"< 	c #2D2926",
"[ 	c #272320",
"} 	c #231F1E",
"| 	c #2E2A27",
"1 	c #2F2C27",
"2 	c #272421",
"3 	c #25211F",
"4 	c #231F1F",
"5 	c #24211F",
"6 	c #332F29",
"7 	c #201C1D",
"8 	c #262321",
"9 	c #2B2825",
"0 	c #2D2925",
"a 	c #2E2A25",
"b 	c #242020",
"c 	c #302C27",
"d 	c #262120",
"e 	c #231E1E",
"f 	c #292623",
"g 	c #2B2723",
"h 	c #252220",
"i 	c #2C2925",
"j 	c #272322",
"k 	c #24201E",
"l 	c #201C1C",
"m 	c #2A2723",
"n 	c #312E29",
"o 	c #000000",
"p 	c #2D2A26",
"q 	c #2A5B12",
"r 	c #3D7E1D",
"s 	c #829069",
"t 	c #AA9F8E",
"u 	c #A89E8C",
"v 	c #427F24",
"w 	c #322E28",
"x 	c #3F831E",
"y 	c #59B32D",
"z 	c #B9CC96",
"A 	c #F0E1C9",
"B 	c #EEE0C7",
"C 	c #60B437",
"D 	c #448326",
"E 	c #B8CB95",
"F 	c #EEDFC7",
"G 	c #ECDEC5",
"H 	c #59B22D",
"I 	c #58B22E",
"J 	c #ECDFC5",
"K 	c #5FB338",
"L 	c #5CB333",
"M 	c #1F1C1B",
"N 	c #1E1B1A",
"O 	c #AFA492",
"P 	c #479540",
"Q 	c #2D6D4E",
"R 	c #2E704D",
"S 	c #42953C",
"T 	c #196B48",
"U 	c #5FB337",
"V 	c #1C6E47",
"W 	c #B0B299",
"X 	c #1B1718",
"Y 	c #171414",
"Z 	c #B0A593",
"` 	c #42943C",
" .	c #156948",
"..	c #B1B29A",
"+.	c #1A1717",
"@.	c #151212",
"#.	c #839469",
"$.	c #B4CA91",
"%.	c #B2C990",
"&.	c #459341",
"*.	c #3F913D",
"=.	c #2F7F43",
"-.	c #92B577",
";.	c #B7B79F",
">.	c #B5B59D",
",.	c #246C4B",
"'.	c #7D9177",
").	c #ABAE96",
"!.	c #A9AE94",
"~.	c #5CB332",
"{.	c #1E1A1A",
"].	c #1C1818",
"^.	c #1F1B1B",
"/.	c #221F1C",
"(.	c #1D1A1A",
"_.	c #2E6E4E",
":.	c #1E1B1B",
"<.	c #1C1919",
"[.	c #191616",
"}.	c #1D1919",
"|.	c #227346",
"1.	c #207146",
"2.	c #1B6D47",
"3.	c #186B47",
"4.	c #55AC2C",
"5.	c #56AD2B",
"6.	c #B3C691",
"7.	c #E8DBC3",
"8.	c #E6D9C1",
"9.	c #2C6D4E",
"0.	c #146747",
"a.	c #146545",
"b.	c #1A6845",
"c.	c #6DB649",
"d.	c #6EB749",
"e.	c #4F8634",
"f.	c #1B1717",
"g.	c #151313",
"h.	c #156847",
"i.	c #000705",
"j.	c #094A32",
"k.	c #116847",
"l.	c #116947",
"m.	c #0C4B32",
"n.	c #26231E",
"o.	c #181414",
"p.	c #010A05",
"q.	c #161313",
"r.	c #141111",
"s.	c #58B22D",
"t.	c #3B8D3F",
"u.	c #3A8B3F",
"v.	c #2C7C44",
"w.	c #176A48",
"x.	c #479B39",
"y.	c #489C39",
"z.	c #99B97D",
"A.	c #C8D1A4",
"B.	c #C6CFA2",
"C.	c #276D4C",
"D.	c #181E11",
"E.	c #A7C485",
"F.	c #A9C686",
"G.	c #7B9161",
"H.	c #181515",
"I.	c #171313",
"J.	c #071A02",
"K.	c #58B12C",
"L.	c #1B1818",
"M.	c #3A7A20",
"N.	c #53A830",
"O.	c #53A732",
"P.	c #668568",
"Q.	c #678469",
"R.	c #4B755A",
"S.	c #146347",
"T.	c #146246",
"U.	c #031617",
"V.	c #021014",
"W.	c #0D4D35",
"X.	c #186B48",
"Y.	c #52AA33",
"Z.	c #53AB32",
"`.	c #ACC08E",
" +	c #E0D2BC",
".+	c #DED1BB",
"++	c #2B6D4D",
"@+	c #0E5036",
"#+	c #042819",
"$+	c #0A3019",
"%+	c #52A630",
"&+	c #1F1C1C",
"*+	c #06222B",
"=+	c #0C333E",
"-+	c #2A3F46",
";+	c #EEDFC8",
">+	c #F1E2CA",
",+	c #B1A999",
"'+	c #0E343E",
")+	c #0E353E",
"!+	c #125443",
"~+	c #146848",
"{+	c #095242",
"]+	c #00313C",
"^+	c #00333C",
"/+	c #156848",
"(+	c #0C353E",
"_+	c #1A1616",
":+	c #191515",
"<+	c #07242B",
"[+	c #2B4045",
"}+	c #B1A998",
"|+	c #0E373E",
"1+	c #161212",
"2+	c #1A3A41",
"3+	c #8D9A81",
"4+	c #8F9B83",
"5+	c #698169",
"6+	c #135D45",
"7+	c #135C45",
"8+	c #0E363E",
"9+	c #286C4C",
"0+	c #CAC4AD",
"a+	c #CCC6AE",
"b+	c #969585",
"c+	c #135B45",
"d+	c #104A41",
"e+	c #254F46",
"f+	c #CABFAC",
"g+	c #CCC1AD",
"h+	c #958D7E",
"i+	c #5C7F63",
"j+	c #7C8F76",
"k+	c #183940",
"l+	c #114E42",
"m+	c #146046",
"n+	c #29644B",
"o+	c #D4CCB4",
"p+	c #D6CDB6",
"q+	c #9D9A8B",
"r+	c #5B7360",
"s+	c #104540",
"t+	c #274C46",
"u+	c #D4C8B3",
"v+	c #D6CAB5",
"w+	c #9D9484",
"x+	c #141212",
"y+	c #106847",
"z+	c #0F5443",
"A+	c #B1B39A",
"B+	c #07353D",
"C+	c #07343D",
"D+	c #04232A",
"E+	c #243D43",
"F+	c #114C42",
"G+	c #687767",
"H+	c #8D9A82",
"I+	c #1D5F47",
"J+	c #1A3940",
"K+	c #8D897E",
"L+	c #8E8B7F",
"M+	c #67645C",
"N+	c #201D1D",
"O+	c #EEE0C8",
"P+	c #2B4146",
"Q+	c #B1A694",
"R+	c #01090C",
"S+	c #48443D",
"T+	c #645D53",
"U+	c #635D52",
"V+	c #0C1518",
"W+	c #48433A",
"X+	c #14110F",
"Y+	c #140F0C",
"Z+	c #110B04",
"  . . . . . + @ @ + . # $ % & $ * . . + @ = - - ; + . > , % ' ) ! . . . . ~ { % . . ",
"& ] . . . . + @ @   . ^ / ( { $ * . . + _ { ' { ; . . # / _ { ) ! . . . . ~ / _ % . ",
": #   . . . + @ ) < % ; : = = , * . . + _ $ # , ) % % @ = = = [ ! . . . . ~ } { ~ . ",
": #   . . . + @ : / { / } : = { | + + 1 2 } 3 4 / { 5 } } : = ) ! . . . . ~ { ^ + . ",
": # . . . 6 ! _ 7 : ' ~ ~ # ) 4 ) ; ; @ / { # ~ ~ & / 8 9 # , ) ! . . . . ~ / ) % . ",
": @ 0 0 0 a ~ , 7 / % . . + & = - 3 @ ) 4 @ + . . * $ &     ' { ^ % 0 a 0 ; : = &   ",
"4 b { / 4 4 4 / : / % . . . & = - # ! * ) _ + . . * $ ' ! c ; : 4 3 , d / } = 4 #   ",
"< < & } = 7 e f @ { % . .   & = : ~ . + @ _ + . . * $ / ) ) / = - @ 0 ~ { 7 } g c . ",
". 6 ] 3 h , 4 @ @ / ; ~ ~ ~ ) = - _ ~ # { { # ~ 0 # / = 7 = , , / i . + j = : & * . ",
"! ! i { & # / / 3 / 3 / k 3 3 / / 3 3 } } 3 { } } } 4 } = : ' # 3 # ! | $ : / { ^ . ",
") ) , } { { 4 & % % % @ 5 # % % % % & / f % ~ { l 4 # @ = = { , } { ) , } ) 0 % c . ",
"; ; ' ' ' ) / < . . . # , * . . . . % { 0 6 ! ) l } ; ) } @ ' ) } $ ) : = ;   6 . . ",
"+ + + +   0 { < . . . # , * . . . . a { & * < , } { { 4 , | . 0 { & m } = ) % * + . ",
". . . . . a , ~ . . + # , * . . . . a / 4 , , } ) % % ; , * . % / / 3 : : / { $ ~ n ",
". . . . . 0 o o o o o o o o o o o o o o o o o o o o o o o o o o o o o o # ) = = &   ",
". . . . . p o o q r r r r s t u v r r r r r r s t u v r r r r r r q o o . ~ } { ^ . ",
"+ + + + w 0 o o x y y y y z A B C y y y y y y z A B C y y y y y y x o o . ~ { # + . ",
"; ; ; ; & ) o o D C C y y E F G C y H I I I I E B J K I L C C y y x o o . ~ / _ % . ",
"- { $ : M N o o O B J C y P Q R I y S T T T T P C U V T W B J C y x o o < ' : - &   ",
"- ' ^ } X Y o o Z A B C y `  .T I y `  . . . .` y I T  ...A B C y x o o 4 : l = ; * ",
"= { 8 - +.@.o o #.$.%.&.*.=. .T I y -.;.>.,. .` y I T  .'.).!.~.y x o o = {.].^.- /.",
"(.^.= l +.@.o o x y I T  . . .T I y z A F _. .` y I T  . . .T I y x o o = :.].^.<.@.",
"[.}.= l +.@.o o x y I |.1.2. .3.4.5.6.7.8.9. .` y I T  .0.a.b.c.d.e.o o = l ^.^.f.@.",
"{.l = l f.g.o o x y y y y `  .h.i.o j.k.l. . .` y I T  .m.o n.F A Z o o = {.+.[.o.@.",
"}.}.{.l {.f.o o x y y y y `  .h.p.o m. . . . .` y I T  .m.o n.F A Z o o = }.q.r.@.@.",
"q.@.[.^.l ^.o o x y s.t.u.v. .h.p.o m. .w.x.y.z.A.B.C. .m.o D.E.F.G.o o = {.H.Y I.@.",
"@.@.[.^.<.H.o o x y I T  . . .h.p.o m. .T I y z A F _. .m.o J.K.y x o o = l :.{.f.@.",
"L.L.}.l +.@.o o M.N.O.P.Q.R.S.T.U.V.W. .X.Y.Z.`. +.+++ .@+#+$+%+N.M.o o {.].}.l <.q.",
":.&+= l +.@.o o *+=+-+;+>+,+'+'+)+)+!+ . .~+~+{+]+^+/+ . . ./+(+=+*+o o _+@.Y {.<.q.",
":+{.= l L.q.o o <+)+[+F A }+)+)+)+)+!+ . . . .!+)+|+/+ . . ./+|+)+<+o o _+1+H.:.<.q.",
"<.^.= = {.<.o o <+)+2+3+4+5+6+7+8+)+!+ .9+0+a+b+)+|+/+ .c+d+e+f+g+h+o o :.<.}.l <.q.",
"{.{.^.= = l o o <+)+|+/+ . . ./+|+)+!+ ._.F A }+)+|+/+ .!+)+[+F A Z o o ^.{.{.{.+.1+",
"Y I._+l = {.o o <+)+|+/+ .i+'.j+k+)+l+m+n+o+p+q+)+k+j+'.r+s+t+u+v+w+o o f.Y Y Y q.@.",
"x+r.:+^.= (.o o <+)+|+/+ ...A F [+)+)+)+|+y+y+z+)+[+F A A+ ./+B+C+D+o o _+@.@.@.@.@.",
"[.[.].l = {.o o D+C+B+/+ .A+A F [+)+)+)+|+/+ .!+)+[+F A A+ ./+|+)+<+o o [.x+@.@.@.@.",
"^.^.l = = {.o o w+v+u+t+s+r+'.j+k+)+l+m+m+ . .!+)+k+j+'.r+s+s+)+)+<+o o f.Y Y Y q.@.",
"_+{.= = = l o o Z A F [+)+!+ ./+|+)+!+ . . . .!+)+|+/+ .!+)+)+)+)+<+o o ^.{.(.(.+.q.",
"L.:.l {.}.:.o o h+g+f+E+)+F+6+7+8+)+G+4+H+I+6+F+)+8+7+6+F+)+J+K+L+M+o o :.:.= = <.q.",
"^.N+^.H.q.+.o o <+)+)+)+)+)+)+)+)+)+}+A F [+)+)+)+)+)+)+)+)+[+F A Z o o L.].l l L.q.",
"[.{.{.Y r._+o o <+)+)+)+)+)+)+)+)+)+,+>+O+P+)+)+)+)+)+)+)+)+P+O+>+Q+o o ^.&+l f.Y @.",
"@.[.+.q.@.Y o o R+V.V.V.V.V.V.V.V.V.S+T+U+V+V.V.V.V.V.V.V.V.V+U+T+W+o o <.<.L.Y X+Y+",
"@.@.@.@.@.@.o o o o o o o o o o o o o o o o o o o o o o o o o o o o o o q.q.q.@.Y+Z+"};
