/* XPM */
static char * mob2_xpm[] = {
"42 42 356 2",
"  	c #312D29",
". 	c #322E29",
"+ 	c #312D28",
"@ 	c #282422",
"# 	c #2B2724",
"$ 	c #262221",
"% 	c #2E2A26",
"& 	c #2A2623",
"* 	c #2F2B27",
"= 	c #211D1D",
"- 	c #221E1D",
"; 	c #292522",
"> 	c #2A2624",
", 	c #262220",
"' 	c #292523",
") 	c #272321",
"! 	c #302C28",
"~ 	c #2C2825",
"{ 	c #252120",
"] 	c #2F2B26",
"^ 	c #2C2824",
"/ 	c #24201F",
"( 	c #272422",
"_ 	c #282421",
": 	c #221E1E",
"< 	c #2D2926",
"[ 	c #272320",
"} 	c #231F1E",
"| 	c #2E2A27",
"1 	c #2F2C27",
"2 	c #272421",
"3 	c #25211F",
"4 	c #231F1F",
"5 	c #24211F",
"6 	c #332F29",
"7 	c #201C1D",
"8 	c #262321",
"9 	c #2B2825",
"0 	c #2D2925",
"a 	c #2E2A25",
"b 	c #242020",
"c 	c #302C27",
"d 	c #262120",
"e 	c #231E1E",
"f 	c #292623",
"g 	c #2B2723",
"h 	c #252220",
"i 	c #2C2925",
"j 	c #272322",
"k 	c #24201E",
"l 	c #201C1C",
"m 	c #000000",
"n 	c #312E29",
"o 	c #306616",
"p 	c #52A629",
"q 	c #9EB87E",
"r 	c #DED0BA",
"s 	c #DFD1BA",
"t 	c #66A944",
"u 	c #AABC89",
"v 	c #DCCFB8",
"w 	c #57A731",
"x 	c #357018",
"y 	c #356F18",
"z 	c #59B32D",
"A 	c #ABC788",
"B 	c #F0E1C9",
"C 	c #6FB74A",
"D 	c #B7CB94",
"E 	c #EEE0C7",
"F 	c #5FB435",
"G 	c #3A791B",
"H 	c #8C8374",
"I 	c #988E7E",
"J 	c #9DA480",
"K 	c #A5C583",
"L 	c #A6C583",
"M 	c #66B53F",
"N 	c #91B974",
"O 	c #C5C1A9",
"P 	c #C6C1A9",
"Q 	c #67B442",
"R 	c #52AA32",
"S 	c #499D38",
"T 	c #9AB97E",
"U 	c #CAD2A6",
"V 	c #C8D1A5",
"W 	c #4E9F3D",
"X 	c #84B468",
"Y 	c #6F8657",
"Z 	c #F1E1CA",
"` 	c #79B955",
" .	c #479B39",
"..	c #156948",
"+.	c #56AF30",
"@.	c #45983B",
"#.	c #41933D",
"$.	c #58B22E",
"%.	c #186B48",
"&.	c #B6B69E",
"*.	c #A49988",
"=.	c #F1E2CA",
"-.	c #43983A",
";.	c #076846",
">.	c #F1E1C9",
",.	c #A49A89",
"'.	c #4F4941",
").	c #565047",
"!.	c #63824B",
"~.	c #76B953",
"{.	c #77B953",
"].	c #367F47",
"^.	c #247446",
"/.	c #1E5E38",
"(.	c #112415",
"_.	c #112315",
":.	c #56AD2C",
"<.	c #AAC589",
"[.	c #E4D8C0",
"}.	c #387152",
"|.	c #437457",
"1.	c #597D61",
"2.	c #597B60",
"3.	c #38342D",
"4.	c #257545",
"5.	c #135338",
"6.	c #110A03",
"7.	c #100603",
"8.	c #56AD2B",
"9.	c #B1C98F",
"0.	c #EFE0C8",
"a.	c #3B7253",
"b.	c #146646",
"c.	c #000101",
"d.	c #1C1818",
"e.	c #1F1B1B",
"f.	c #221F1C",
"g.	c #1D1A1A",
"h.	c #40933D",
"i.	c #3C8E3E",
"j.	c #307739",
"k.	c #13452E",
"l.	c #12452E",
"m.	c #438923",
"n.	c #468D22",
"o.	c #8CA473",
"p.	c #BEBCA4",
"q.	c #BDBBA3",
"r.	c #306E4F",
"s.	c #145E40",
"t.	c #135237",
"u.	c #2D583F",
"v.	c #A19786",
"w.	c #A19787",
"x.	c #9B9181",
"y.	c #020000",
"z.	c #080401",
"A.	c #030200",
"B.	c #1C1919",
"C.	c #151212",
"D.	c #191616",
"E.	c #1D1919",
"F.	c #111F11",
"G.	c #134830",
"H.	c #134A31",
"I.	c #413B33",
"J.	c #E6D8C1",
"K.	c #050000",
"L.	c #070401",
"M.	c #1B1717",
"N.	c #1E1A1A",
"O.	c #E6D8C0",
"P.	c #1A1717",
"Q.	c #181414",
"R.	c #2A7A44",
"S.	c #1E6F47",
"T.	c #1B6D47",
"U.	c #166A48",
"V.	c #55AD31",
"W.	c #57B02F",
"X.	c #B3C891",
"Y.	c #EADFC4",
"Z.	c #E7DCC2",
"`.	c #296D4D",
" +	c #1F2F0E",
".+	c #6BB646",
"++	c #58833D",
"@+	c #453F36",
"#+	c #423C33",
"$+	c #010100",
"%+	c #161313",
"&+	c #141111",
"*+	c #57B12F",
"=+	c #EDDFC7",
"-+	c #2A6D4D",
";+	c #1B2E08",
">+	c #3C7A1C",
",+	c #100903",
"'+	c #181515",
")+	c #171414",
"!+	c #171313",
"~+	c #707E59",
"{+	c #B4CA91",
"]+	c #ACB296",
"^+	c #ABAE96",
"/+	c #89937D",
"(+	c #125644",
"_+	c #102B2C",
":+	c #10252A",
"<+	c #124C39",
"[+	c #166948",
"}+	c #42953C",
"|+	c #44973B",
"1+	c #8BA277",
"2+	c #B6AD9D",
"3+	c #B4AC9B",
"4+	c #226B4B",
"5+	c #145A3D",
"6+	c #134931",
"7+	c #184F31",
"8+	c #438B36",
"9+	c #2E5E22",
"0+	c #1E1B1B",
"a+	c #1B1818",
"b+	c #978D7D",
"c+	c #C0B6A4",
"d+	c #0E353E",
"e+	c #115143",
"f+	c #125543",
"g+	c #0E373E",
"h+	c #156848",
"i+	c #156747",
"j+	c #102328",
"k+	c #1F1C1C",
"l+	c #958C7C",
"m+	c #EEDFC8",
"n+	c #EEE0C8",
"o+	c #BEB5A3",
"p+	c #0E363E",
"q+	c #286C4D",
"r+	c #1F5746",
"s+	c #166748",
"t+	c #263E44",
"u+	c #263031",
"v+	c #27221B",
"w+	c #252019",
"x+	c #191515",
"y+	c #192629",
"z+	c #2E4247",
"A+	c #316B4E",
"B+	c #316F4F",
"C+	c #286C4C",
"D+	c #0F3B3F",
"E+	c #1F6B4A",
"F+	c #E9DBC3",
"G+	c #B1A998",
"H+	c #125343",
"I+	c #404E4F",
"J+	c #EDDEC7",
"K+	c #E3D5BE",
"L+	c #051D23",
"M+	c #0E343E",
"N+	c #146547",
"O+	c #206B4A",
"P+	c #ECDEC6",
"Q+	c #B3AA9A",
"R+	c #125243",
"S+	c #414D4F",
"T+	c #778D73",
"U+	c #B3B49C",
"V+	c #B4B49C",
"W+	c #374A4B",
"X+	c #104440",
"Y+	c #185444",
"Z+	c #AFB199",
"`+	c #818777",
" @	c #223D43",
".@	c #B2B39B",
"+@	c #808C77",
"@@	c #305C4B",
"#@	c #AEA696",
"$@	c #AEA697",
"%@	c #AEA493",
"&@	c #AEA391",
"*@	c #A79C8B",
"=@	c #090501",
"-@	c #030201",
";@	c #161212",
">@	c #1A1616",
",@	c #A0A78E",
"'@	c #4B5554",
")@	c #156748",
"!@	c #ACAF97",
"~@	c #141212",
"{@	c #34302A",
"]@	c #39342E",
"^@	c #3A3D3B",
"/@	c #3C4A4C",
"(@	c #1C6448",
"_@	c #9DA48C",
":@	c #EBDDC5",
"<@	c #4A5453",
"[@	c #0E393F",
"}@	c #2D4146",
"|@	c #E9DCC4",
"1@	c #A8AC94",
"2@	c #DDD0B9",
"3@	c #EFE0C9",
"4@	c #5B615D",
"5@	c #155043",
"6@	c #1D6A4A",
"7@	c #1E6A4A",
"8@	c #103B3F",
"9@	c #0F373E",
"0@	c #1D6A49",
"a@	c #165344",
"b@	c #5C615E",
"c@	c #114F42",
"d@	c #988F7F",
"e@	c #A59B8A",
"f@	c #A59C8C",
"g@	c #A69F90",
"h@	c #A69F91",
"i@	c #3E4C4E",
"j@	c #0F4240",
"k@	c #0E383E",
"l@	c #828577",
"m@	c #BBBAA2",
"n@	c #BAB9A1",
"o@	c #2D584A",
"p@	c #104540",
"q@	c #115042",
"r@	c #324448",
"s@	c #BBB1A0",
"t@	c #BBB2A0",
"u@	c #BBB09E",
"v@	c #BBAF9C",
"w@	c #B3A895",
"x@	c #030000",
"y@	c #0A0602",
"z@	c #040201",
"A@	c #A7A091",
"B@	c #39494B",
"C@	c #201D1D",
"D@	c #051C21",
"E@	c #0D323B",
"F@	c #A09A8B",
"G@	c #E6D7C0",
"H@	c #364548",
"I@	c #3E4A4B",
"J@	c #DDCFB9",
"K@	c #040000",
"L@	c #060301",
"M@	c #14110F",
"N@	c #140F0C",
"O@	c #110B04",
"  . . . . . + @ @ + . # $ % & $ * . . + @ = - - ; + . > , % ' ) ! . . . . ~ { % . . ",
"& ] . . . . + @ @   . ^ / ( { $ * . . + _ { ' { ; . . # / _ { ) ! . . . . ~ / _ % . ",
": #   . . . + @ ) < % ; : = = , * . . + _ $ # , ) % % @ = = = [ ! . . . . ~ } { ~ . ",
": #   . . . + @ : / { / } : = { | + + 1 2 } 3 4 / { 5 } } : = ) ! . . . . ~ { ^ + . ",
": # . . . 6 ! _ 7 : ' ~ ~ # ) 4 ) ; ; @ / { # ~ ~ & / 8 9 # , ) ! . . . . ~ / ) % . ",
": @ 0 0 0 a ~ , 7 / % . . + & = - 3 @ ) 4 @ + . . * $ &     ' { ^ % 0 a 0 ; : = &   ",
"4 b { / 4 4 4 / : / % . . . & = - # ! * ) _ + . . * $ ' ! c ; : 4 3 , d / } = 4 #   ",
"< < & } = 7 e f @ { % . .   & = : ~ . + @ _ + . . * $ / ) ) / = - @ 0 ~ { 7 } g c . ",
". 6 ] 3 h , 4 @ @ / ; ~ ~ ~ ) = - _ ~ # { { # ~ 0 # / = 7 = , , / i . + j = : & * . ",
"! ! i { & # / / 3 / 3 / k 3 3 / / 3 3 } } 3 { } } } 4 } = : ' # 3 # ! | $ : / { ^ . ",
") ) , } { { 4 & % % % @ 5 # % % % % & / f % ~ { l 4 # @ = = { , } { ) , } ) 0 % c . ",
"; ; ' ' ' ) / < . . . # , * . . . . % { 0 6 ! ) l } ; ) } @ ' ) } $ ) : = ;   6 . . ",
"+ + + m m m m m m m m m m m m m m m m m m m m m m m m m m m m m m m m m m m % * + . ",
". . . m m m m m m m m m m m m m m m m m m m m m m m m m m m m m m m m m m m { $ ~ n ",
". . . m m m m o p p p p q r s t p p p p p p u r v w p p p p p p x m m m m m = = &   ",
". . . m m m m y z z z z A B B C z z z z z z D B E F z z z z z z G m m m m m } { ^ . ",
"+ + + m m H I J K L M z N O P Q z R S S S S T U V W S X K K K K Y m m m m m { # + . ",
"; ; ; m m r B B B Z ` z  .....+.z @.........#.z $.%...&.B B B B *.m m m m m / _ % . ",
"- { $ m m s =.Z Z =.` z  .....+.z -.;.;.....#.z $.%...&.>.>.=.=.,.m m m m m : - &   ",
"- ' ^ m m '.).!.~.{.].^./.(._.:.z <.[.[.}...#.z $.%...|.1.2.).).3.m m m m m l = ; * ",
"= { 8 m m m m y z z 4...5.6.7.8.z 9.B 0.a...#.z $.%.......b.c.m m m m m m m d.e.- f.",
"g.e.= m m m m y z z h.i.j.k.l.m.n.o.p.q.r...#.z $.%...s.t.u.v.w.w.w.x.y.z.A.d.e.B.C.",
"D.E.= m m m m y z z z z  .....F.6.G.........#.z $.%...H.6.I.B B B B J.K.6.L.e.e.M.C.",
"N.l = m m m m y z z z z  .....F.6.G.........#.z $.%...H.6.I.B B B B O.K.6.L.P.D.Q.C.",
"E.E.N.m m m m y z z R.S.T.....F.6.G...U.V.W.X.Y.Z.`...H.6. +.+.+++@+#+m $+m %+&+C.C.",
"%+C.D.m m m m y z z 4.........F.6.G...U.*+z D B =+-+..H.6.;+z z >+6.,+m m m '+)+!+C.",
"C.C.D.m m m m ~+{+{+]+^+/+(+(+_+:+<+..[+}+|+1+2+3+4+..5+6+7+8+8+9+6.,+m m m 0+N.M.C.",
"a+a+E.m m m m b+B B B B c+d+d+d+d+e+........f+d+g+h+......i+d+d+j+6.,+m m m E.l B.%+",
"0+k+= m m m m l+m+m+n+n+o+p+p+d+d+e+....q+`.r+d+g+h+....h+s+t+t+u+v+w+m m m )+N.B.%+",
"x+N.= m m m m y+z+z+A+B+C+h+h+D+d+e+..E+F+=+G+d+g+h+..H+g+I+J+J+J+J+K+K.6.L.'+0+B.%+",
"B.e.= m m m m L+d+M+N+........D+d+e+..O+P+B Q+d+g+h+..R+d+S+B B B B J.K.6.L.E.l B.%+",
"N.N.e.m m m m L+d+M+N+..T+U+V+W+d+X+H+Y+^+Z+`+d+ @.@U++@f+@@#@$@%@&@*@y.=@-@N.N.P.;@",
")+!+>@m m m m L+d+M+N+..,@B B '@d+d+d+p+)@..f+d+z+m+B !@..i+d+d+j+6.,+m m m )+)+%+C.",
"~@&+x+m m {@]@^@/@/@(@)@_@:@:@<@d+g+[@[@)@..f+d+}@|@:@1@)@N+d+d+j+6.,+m m m C.C.C.C.",
"D.D.d.m m 2@0.0.3@B 4@d+5@6@7@8@d+e+........f+d+9@0@6@a@d+d+d+d+j+6.,+m m m C.C.C.C.",
"e.e.l m m r B B B =.b@d+c@....D+d+e+........f+d+g+h+..R+d+d+d+d+j+6.,+m m m )+)+%+C.",
">@N.= m m d@e@f@g@h@i@d+j@e+e+k@d+l@m@n@o@e+p@d+p+q@e+X+d+r@s@t@u@v@w@x@y@z@g.g.P.%+",
"a+0+l m m m m L+d+d+d+d+d+d+d+d+d+A@B 0.B@d+d+d+d+d+d+d+d+S+B B B B J.K.6.L.= = B.%+",
"e.C@e.m m m m D@E@E@E@E@E@E@E@E@E@F@J.G@H@E@E@E@E@E@E@E@E@I@J.J.J.J.J@K@,+L@l l a+%+",
"D.N.N.m m m m m m m m m m m m m m m m m m m m m m m m m m m m m m m m m m m l M.)+C.",
"C.D.P.m m m m m m m m m m m m m m m m m m m m m m m m m m m m m m m m m m m a+)+M@N@",
"C.C.C.m m m m m m m m m m m m m m m m m m m m m m m m m m m m m m m m m m m %+C.N@O@"};
