/* XPM */
static char * open_gate_xpm[] = {
"42 42 462 2",
"  	c #312D29",
". 	c #322E29",
"+ 	c #312D28",
"@ 	c #282422",
"# 	c #2B2724",
"$ 	c #262221",
"% 	c #2E2A26",
"& 	c #2A2623",
"* 	c #2F2B27",
"= 	c #211D1D",
"- 	c #221E1D",
"; 	c #292522",
"> 	c #2A2624",
", 	c #262220",
"' 	c #292523",
") 	c #272321",
"! 	c #302C28",
"~ 	c #2C2825",
"{ 	c #252120",
"] 	c #2F2B26",
"^ 	c #2C2824",
"/ 	c #24201F",
"( 	c #272422",
"_ 	c #282421",
": 	c #221E1E",
"< 	c #2D2926",
"[ 	c #201C1C",
"} 	c #24201E",
"| 	c #2D2925",
"1 	c #2F2925",
"2 	c #2C1A18",
"3 	c #2A211F",
"4 	c #25211F",
"5 	c #272320",
"6 	c #231F1E",
"7 	c #23201F",
"8 	c #201D1C",
"9 	c #1F1C1B",
"0 	c #1F1B1C",
"a 	c #331F1D",
"b 	c #37201D",
"c 	c #341E1C",
"d 	c #351E1C",
"e 	c #72433D",
"f 	c #73443D",
"g 	c #472926",
"h 	c #2F1B19",
"i 	c #35201D",
"j 	c #211C1C",
"k 	c #1E1B1B",
"l 	c #1F1C1C",
"m 	c #332F29",
"n 	c #1B1819",
"o 	c #1D191A",
"p 	c #332320",
"q 	c #412622",
"r 	c #231514",
"s 	c #673C37",
"t 	c #71423C",
"u 	c #6B3F39",
"v 	c #291719",
"w 	c #512D2F",
"x 	c #522E30",
"y 	c #311B1D",
"z 	c #623934",
"A 	c #70423C",
"B 	c #36231F",
"C 	c #211E1D",
"D 	c #292622",
"E 	c #302D28",
"F 	c #2E2A25",
"G 	c #2B1F1D",
"H 	c #492B27",
"I 	c #3A221F",
"J 	c #4C2C28",
"K 	c #6F413C",
"L 	c #3B2220",
"M 	c #4A292B",
"N 	c #4D2A2D",
"O 	c #221315",
"P 	c #432527",
"Q 	c #442527",
"R 	c #291718",
"S 	c #462729",
"T 	c #6E413B",
"U 	c #53302C",
"V 	c #351F1C",
"W 	c #4A2B27",
"X 	c #322522",
"Y 	c #231F1F",
"Z 	c #242020",
"` 	c #38201E",
" .	c #7B4941",
"..	c #643B35",
"+.	c #351D1F",
"@.	c #2C181A",
"#.	c #391F21",
"$.	c #3F2324",
"%.	c #3B2123",
"&.	c #110C0E",
"*.	c #0B0A0C",
"=.	c #0C0A0C",
"-.	c #361E20",
";.	c #261517",
">.	c #3B2023",
",.	c #5D3731",
"'.	c #7C4A42",
").	c #221F1D",
"!.	c #262120",
"~.	c #201C1D",
"{.	c #211C1D",
"].	c #75453E",
"^.	c #53302D",
"/.	c #251517",
"(.	c #3A2022",
"_.	c #201214",
":.	c #0A090C",
"<.	c #0F0B0D",
"[.	c #1C1012",
"}.	c #4D2C2A",
"|.	c #74453E",
"1.	c #422623",
"2.	c #282522",
"3.	c #2B2723",
"4.	c #302C27",
"5.	c #252220",
"6.	c #71433D",
"7.	c #412426",
"8.	c #09090B",
"9.	c #0E0B0D",
"0.	c #08090B",
"a.	c #3C2123",
"b.	c #2D2A25",
"c.	c #272322",
"d.	c #2C2925",
"e.	c #291E1D",
"f.	c #3F2522",
"g.	c #341715",
"h.	c #306470",
"i.	c #4B9CAF",
"j.	c #50A5B8",
"k.	c #4FA4B8",
"l.	c #50A4B8",
"m.	c #4EA0B3",
"n.	c #35707E",
"o.	c #2D120F",
"p.	c #2C1919",
"q.	c #1E1113",
"r.	c #3E2421",
"s.	c #2F2320",
"t.	c #2E2A27",
"u.	c #35211E",
"v.	c #653B36",
"w.	c #330E14",
"x.	c #558974",
"y.	c #5EADB1",
"z.	c #81D6BE",
"A.	c #61B4BA",
"B.	c #80D3BD",
"C.	c #6CBFBB",
"D.	c #72C5BC",
"E.	c #7BCFBD",
"F.	c #63B6BA",
"G.	c #83D7BE",
"H.	c #80D2B9",
"I.	c #39737E",
"J.	c #2D110F",
"K.	c #2F191C",
"L.	c #623A35",
"M.	c #3D2422",
"N.	c #341515",
"O.	c #376B71",
"P.	c #82D3B5",
"Q.	c #8ADFBF",
"R.	c #6EC1BB",
"S.	c #7CD0BD",
"T.	c #73C6BC",
"U.	c #88DDBE",
"V.	c #6ABDBB",
"W.	c #66B7B5",
"X.	c #639F84",
"Y.	c #2B030E",
"Z.	c #341D1F",
"`.	c #23201E",
" +	c #320C14",
".+	c #598E75",
"++	c #8BDDB7",
"@+	c #92E8C0",
"#+	c #8EE2BB",
"$+	c #64A084",
"%+	c #2B020E",
"&+	c #262320",
"*+	c #588E75",
"=+	c #93E9C1",
"-+	c #211E1C",
";+	c #312E29",
">+	c #2E0812",
",+	c #70B598",
"'+	c #28000C",
")+	c #2D2A26",
"!+	c #2B0511",
"~+	c #92E9C1",
"{+	c #65A58C",
"]+	c #36615A",
"^+	c #25000A",
"/+	c #271618",
"(+	c #322E28",
"_+	c #422426",
":+	c #2C0511",
"<+	c #91E6BF",
"[+	c #4D8171",
"}+	c #2F5753",
"|+	c #25000B",
"1+	c #2D1E1C",
"2+	c #52302C",
"3+	c #301A1C",
"4+	c #2B0410",
"5+	c #639079",
"6+	c #8EDDB8",
"7+	c #9FEAC4",
"8+	c #95E8C1",
"9+	c #9EEAC4",
"0+	c #98E9C2",
"a+	c #9BEBC4",
"b+	c #62A088",
"c+	c #305954",
"d+	c #9BE4BF",
"e+	c #649F84",
"f+	c #502F2B",
"g+	c #362521",
"h+	c #1E1B1A",
"i+	c #1D1919",
"j+	c #2D1D1B",
"k+	c #56322E",
"l+	c #321B1D",
"m+	c #26000A",
"n+	c #8B9989",
"o+	c #B3E5C5",
"p+	c #D3E6CF",
"q+	c #BAEFCE",
"r+	c #D7F7DA",
"s+	c #C4F2D2",
"t+	c #BAE8C9",
"u+	c #528D79",
"v+	c #2E5652",
"w+	c #B9F0CE",
"x+	c #D6F1D6",
"y+	c #78A38B",
"z+	c #230008",
"A+	c #281618",
"B+	c #54312D",
"C+	c #362421",
"D+	c #2B2824",
"E+	c #1B1718",
"F+	c #171414",
"G+	c #161313",
"H+	c #29030E",
"I+	c #73947F",
"J+	c #BECEBB",
"K+	c #616866",
"L+	c #C3CFBD",
"M+	c #CCF4D5",
"N+	c #E6FCE2",
"O+	c #87B39C",
"P+	c #204D4C",
"Q+	c #CDF4D6",
"R+	c #EEFDE5",
"S+	c #C1ECCE",
"T+	c #A9AFA0",
"U+	c #1B0000",
"V+	c #262321",
"W+	c #1A1717",
"X+	c #151212",
"Y+	c #141111",
"Z+	c #37201E",
"`+	c #240007",
" @	c #9CA293",
".@	c #737A74",
"+@	c #22303D",
"@@	c #5A6261",
"#@	c #F7FFE9",
"$@	c #F6FFE9",
"%@	c #DCE6D2",
"&@	c #70847A",
"*@	c #164D4B",
"=@	c #2C5652",
"-@	c #F5FFE8",
";@	c #F0F9E2",
">@	c #A8AFA0",
",@	c #191617",
"'@	c #1E1A1A",
")@	c #1C1818",
"!@	c #1F1B1B",
"~@	c #221F1C",
"{@	c #1D1A1A",
"]@	c #2B1416",
"^@	c #5D625B",
"/@	c #4B5355",
"(@	c #273540",
"_@	c #40494E",
":@	c #B0B9AA",
"<@	c #F7FFEA",
"[@	c #DFEAD5",
"}@	c #CFDBC7",
"|@	c #657B72",
"1@	c #EEF8E2",
"2@	c #161414",
"3@	c #1C1919",
"4@	c #191616",
"5@	c #2E1A1B",
"6@	c #161D25",
"7@	c #25323C",
"8@	c #283540",
"9@	c #273440",
"0@	c #7E867E",
"a@	c #C0CCBA",
"b@	c #778A7F",
"c@	c #798C81",
"d@	c #43635D",
"e@	c #F4FEE7",
"f@	c #F3FDE6",
"g@	c #1B1717",
"h@	c #151313",
"i@	c #181F26",
"j@	c #26323D",
"k@	c #364148",
"l@	c #596864",
"m@	c #486660",
"n@	c #2E5753",
"o@	c #47655F",
"p@	c #5A736B",
"q@	c #6C8177",
"r@	c #E2EDD7",
"s@	c #A2A99A",
"t@	c #1D0002",
"u@	c #181414",
"v@	c #1A1616",
"w@	c #283641",
"x@	c #2C484A",
"y@	c #305853",
"z@	c #3C5D57",
"A@	c #2A413D",
"B@	c #281517",
"C@	c #321F1C",
"D@	c #1A282A",
"E@	c #283F43",
"F@	c #293841",
"G@	c #2A4247",
"H@	c #2F5853",
"I@	c #2F5854",
"J@	c #2C4F4C",
"K@	c #2E5450",
"L@	c #2F5652",
"M@	c #294845",
"N@	c #1D3330",
"O@	c #291617",
"P@	c #2D191B",
"Q@	c #603834",
"R@	c #181515",
"S@	c #171313",
"T@	c #251817",
"U@	c #432724",
"V@	c #2E191B",
"W@	c #1B2C2D",
"X@	c #2A4647",
"Y@	c #293A42",
"Z@	c #2C494A",
"`@	c #2C4A4B",
" #	c #2D4F4E",
".#	c #2C514D",
"+#	c #274340",
"@#	c #26413E",
"##	c #2D534F",
"$#	c #2F5653",
"%#	c #243D3B",
"&#	c #131415",
"*#	c #1F1214",
"=#	c #412623",
"-#	c #2C1D1C",
";#	c #1B1818",
">#	c #26323C",
",#	c #283440",
"'#	c #26373D",
")#	c #274041",
"!#	c #2B4448",
"~#	c #1F292B",
"{#	c #2E5451",
"]#	c #2D5350",
"^#	c #223635",
"/#	c #294946",
"(#	c #274341",
"_#	c #243B3A",
":#	c #223837",
"<#	c #131516",
"[#	c #351D20",
"}#	c #422723",
"|#	c #212930",
"1#	c #27333D",
"2#	c #26313B",
"3#	c #223434",
"4#	c #283C41",
"5#	c #213332",
"6#	c #1E2A2B",
"7#	c #1F2C2C",
"8#	c #1C2425",
"9#	c #1B1E20",
"0#	c #1A1D1F",
"a#	c #131517",
"b#	c #191515",
"c#	c #20282E",
"d#	c #27343F",
"e#	c #232E36",
"f#	c #1D2225",
"g#	c #1D2226",
"h#	c #1B1F22",
"i#	c #1C2225",
"j#	c #1B1F21",
"k#	c #1A1E20",
"l#	c #161212",
"m#	c #192027",
"n#	c #1D2328",
"o#	c #232C35",
"p#	c #1F282E",
"q#	c #242F38",
"r#	c #232D36",
"s#	c #1C2125",
"t#	c #141212",
"u#	c #15191E",
"v#	c #2F1A1C",
"w#	c #111314",
"x#	c #321E1B",
"y#	c #1A1E1F",
"z#	c #3C2321",
"A#	c #261A1A",
"B#	c #29181B",
"C#	c #121314",
"D#	c #241518",
"E#	c #221517",
"F#	c #2A1C1B",
"G#	c #1E1A1B",
"H#	c #28181B",
"I#	c #231518",
"J#	c #1A1718",
"K#	c #201D1D",
"L#	c #171515",
"M#	c #361F1D",
"N#	c #402522",
"O#	c #271918",
"P#	c #683E37",
"Q#	c #71433C",
"R#	c #6B3F38",
"S#	c #2F1C1A",
"T#	c #141011",
"U#	c #14110F",
"V#	c #140F0C",
"W#	c #231415",
"X#	c #5D3534",
"Y#	c #5A3333",
"Z#	c #351E20",
"`#	c #5E3634",
" $	c #2B1819",
".$	c #110B04",
"  . . . . . + @ @ + . # $ % & $ * . . + @ = - - ; + . > , % ' ) ! . . . . ~ { % . . ",
"& ] . . . . + @ @   . ^ / ( { $ * . . + _ { ' { ; . . # / _ { ) ! . . . . ~ / _ % . ",
": #   . . . + @ ) < % ; : = [ } | 1 2 2 2 2 3 } 4 ^ ^ @ = = = 5 ! . . . . ~ 6 { ~ . ",
": #   . . . + @ : / 7 8 9 0 a b c d e e e f g h b b i j 9 k l ) ! . . . . ~ { ^ + . ",
": # . . . m ! 5 n o p q q r s t u v w w w x y z t A u r q q B C D E . . . ~ / ) % . ",
": @ | | | F # G H I J K K L M w N O P P P Q R S w w N c T K U V W X ^ F | ; : = &   ",
"Y Z { / Y Y = `  ...+.w w @.#.$.%.&.*.*.*.*.=.-.$.$.%.;.w w >.,.'.q ).!./ 6 = Y #   ",
"< < & 6 = ~.{.` ].^./.(.(._.*.:.*.<.<.<.<.<.<.=.:.:.*.[.(.(.v }.|.1.2.~ { ~.6 3.4.. ",
". m ] 4 5., = ` 6.7.8.*.*.9.<.<.<.<.<.<.<.<.<.<.<.<.<.9.*.*.0.a.K 1.b.+ c.= : & * . ",
"! ! d.{ & # 7 e.f./.g.h.i.j.k.j.k.l.j.k.j.k.j.l.k.j.k.m.n.o.p.q.r.s.* t.$ : / { ^ . ",
") ) , 6 { { : u.v.(.w.x.y.z.A.B.C.D.E.F.G.F.E.D.C.B.A.H.I.J.p.K.L.M./ , 6 ) | % 4.. ",
"; ; ' ' ' ) - ` t 7.N.O.P.C.Q.R.z.S.T.U.V.U.T.S.z.R.Q.W.X.Y.p.Z.T 1.`.: = ;   m . . ",
"+ + + +   | 6 ` t 7. +.+++@+@+@+@+@+@+@+@+@+@+@+@+@+@+#+$+%+p.Z.T 1.&+6 = ) % * + . ",
". . . . . F } ` t 7. +*+++@+@+@+@+@+@+@+=+@+@+@+@+@+@+#+$+%+p.Z.T 1.-+: : / { $ ~ ;+",
". . . . . | ).` t 7.>+*+++@+@+@+@+@+@+@+,+@+@+@+@+@+@+#+$+'+R Z.T 1.$ # # ) = = &   ",
". . . . . )+= ` t 7.!+.+++@+@+@+@+@+~+{+]+{+~+@+@+@+@+#+$+^+/+Z.T 1.b.. . ~ 6 { ^ . ",
"+ + + + (+| = ` 6._+:+.+++@+@+@+@+@+<+[+}+[+<+@+@+@+@+#+$+|+/++.K 1.b.. . ~ { # + . ",
"; ; ; ; & ) = 1+2+3+4+5+6+7+8+9+0+a+b+c+}+c+b+a+0+9+8+d+e+|+/+;.f+g+4.. . ~ / _ % . ",
"- { $ : 9 h+i+j+k+l+m+n+o+p+q+r+s+t+u+v+}+v+u+t+s+r+w+x+y+z+/+A+B+C+D+% < ' : - &   ",
"- ' ^ 6 E+F+G+` 6._+H+I+J+K+L+M+N+O+P+}+}+}+P+O+N+Q+R+S+T+U+/+Z.K 1.9 Y Y : [ = ; * ",
"= { V+- W+X+Y+Z+t 7.`+ @.@+@@@#@$@%@&@*@=@*@&@%@$@$@-@;@>@U+/+Z.T 1.,@[ = '@)@!@- ~@",
"{@!@= [ W+X+Y+Z+t 7.]@^@/@(@_@:@$@<@[@}@|@}@[@<@-@-@-@1@>@U+/+Z.T 1.2@[ = k )@!@3@X+",
"4@i+= [ W+X+Y+Z+t 7.5@6@7@8@9@0@$@a@b@c@d@c@b@a@e@f@f@1@>@U+/+Z.T 1.2@[ = [ !@!@g@X+",
"'@[ = [ g@h@Y+Z+t 7.5@i@j@8@8@k@l@m@n@}+}+}+n@o@p@p@q@r@s@t@/+Z.T 1.2@[ = '@W+4@u@X+",
"i+i+'@[ '@g@v@` t 7.5@i@j@8@8@w@x@}+}+}+}+}+}+}+}+}+y@z@A@B@/+Z.T 1.2@[ = i+G+Y+X+X+",
"G+X+4@!@[ !@i+C@z #.5@D@E@F@G@x@H@}+}+}+}+}+}+I@J@K@L@M@N@O@/+P@Q@I ,@[ = '@R@F+S@X+",
"X+X+4@!@3@R@R@T@U@/+V@W@X@Y@Z@`@ #I@I@M@v+}+.#+#@###$#%#&#v /+*#=#-#!@= = [ k '@g@X+",
";#;#i+[ W+X+Y+` e _+5@i@>#8@,#,#'#)#!#~#{#H@]#^#/#(#_#:#<#R /+[#K }#{@[ '@)@i+[ 3@G+",
"k l = [ W+X+Y+Z+t 7.5@i@j@8@8@>#|#1#8@2#3#4#5#6#7#8#9#0#a#R /+Z.T 1.{@[ v@X+F+'@3@G+",
"b#'@= [ ;#G+X+Z+t 7.5@i@>#c#d#8@e#f#g#g#h#i#j#j#j#j#j#k#a#R /+Z.T 1.{@[ v@l#R@k 3@G+",
"3@!@= = '@3@)@` t 7.5@m#n#>#8@1#o#9#j#j#j#j#j#j#j#j#j#k#a#R /+Z.T 1.W+[ k 3@i+[ 3@G+",
"'@'@!@= = [ {@` t 7.5@m#p#q#q#j#j#j#j#j#j#j#j#j#j#j#j#k#a#R /+Z.T 1.4@[ !@'@'@'@W+l#",
"F+S@v@[ = '@F+Z+t 7.5@m#r#s#9#j#j#j#j#j#j#j#j#j#j#j#j#k#a#R /+Z.T 1.3@[ g@F+F+F+G+X+",
"t#Y+b#!@= {@G+Z+t 7.5@u#h#j#j#j#j#j#j#j#j#j#j#j#j#j#j#k#a#R /+Z.T 1.{@[ v@X+X+X+X+X+",
"4@4@)@[ = '@G+Z+t 7.v#w#0#j#j#j#j#j#j#j#j#j#j#j#j#j#j#k#a#R /+Z.T 1.n !@4@t#X+X+X+X+",
"!@!@[ = = '@F+x#v.(.5@w#y#j#j#j#j#j#j#j#j#j#j#j#j#j#j#k#a#R /+K.L.z#4@!@g@F+F+F+G+X+",
"v@'@= = = [ '@A#f./.B#C#y#j#j#j#j#j#j#j#j#j#j#j#j#j#j#k#a#D#E#q.r.F#{@[ !@'@{@{@W+G+",
";#k [ '@i+k G#` 6._+H#C#y#j#j#j#j#j#j#j#j#j#j#j#j#j#j#k#a#I#E#Z.K 1.J#[ k k = = 3@G+",
"!@K#!@R@G+W+k ` t 7.H#C#y#j#j#j#j#j#j#j#j#j#j#j#j#j#j#k#a#I#E#Z.T 1.L#!@;#)@[ [ ;#G+",
"4@'@'@F+Y+v@k M#t 7.H#C#y#j#j#j#j#j#j#j#j#j#j#j#j#j#j#k#a#I#E#Z.T N#2@!@!@l [ g@F+X+",
"X+4@W+G+X+F+O#P#Q#7.H#C#y#j#j#j#j#j#j#j#j#j#j#j#j#j#j#k#a#I#E#Z.T R#S#T#3@3@;#F+U#V#",
"X+X+X+X+X+X+W#X#Y#_+H#C#y#j#j#j#j#j#j#j#j#j#j#j#j#j#j#k#a#I#E#Z#Y#`# $<.G+G+G+X+V#.$"};
