/* XPM */
static char * open_gate2_xpm[] = {
"42 42 667 2",
"  	c #AD9F8B",
". 	c #AFA18C",
"+ 	c #B0A28D",
"@ 	c #B1A38E",
"# 	c #AA9C89",
"$ 	c #897A6F",
"% 	c #8B7D71",
"& 	c #AC9E8A",
"* 	c #96887A",
"= 	c #82736A",
"- 	c #A09280",
"; 	c #918375",
"> 	c #83746B",
", 	c #A69886",
"' 	c #AB9D89",
") 	c #897C70",
"! 	c #6E5F5C",
"~ 	c #70605D",
"{ 	c #8F8174",
"] 	c #938577",
"^ 	c #A09281",
"/ 	c #8F8074",
"( 	c #86776D",
"_ 	c #A89A87",
": 	c #988A7B",
"< 	c #807168",
"[ 	c #A09180",
"} 	c #AFA18D",
"| 	c #928477",
"1 	c #A29482",
"2 	c #97897A",
"3 	c #7A6B65",
"4 	c #887A6F",
"5 	c #A69986",
"6 	c #897B70",
"7 	c #7E6F67",
"8 	c #8E8073",
"9 	c #7D6E67",
"0 	c #AEA08B",
"a 	c #948678",
"b 	c #7A6A64",
"c 	c #7E7067",
"d 	c #85766D",
"e 	c #A99B87",
"f 	c #998B7B",
"g 	c #796A63",
"h 	c #A19281",
"i 	c #736360",
"j 	c #978879",
"k 	c #887A70",
"l 	c #84756C",
"m 	c #9F9180",
"n 	c #A19382",
"o 	c #8D7F73",
"p 	c #6D5D5B",
"q 	c #685957",
"r 	c #7A6D64",
"s 	c #9F917F",
"t 	c #9B8E7C",
"u 	c #2C1A18",
"v 	c #776B60",
"w 	c #7A6C64",
"x 	c #7F7167",
"y 	c #978A79",
"z 	c #9A8C7C",
"A 	c #8C7D71",
"B 	c #84766C",
"C 	c #776762",
"D 	c #807169",
"E 	c #9B8D7D",
"F 	c #AEA08C",
"G 	c #71615E",
"H 	c #968879",
"I 	c #72625E",
"J 	c #7A6B64",
"K 	c #70625C",
"L 	c #6A5B58",
"M 	c #695B57",
"N 	c #44312F",
"O 	c #3B2522",
"P 	c #3B2824",
"Q 	c #3B2623",
"R 	c #72433D",
"S 	c #73443D",
"T 	c #482B28",
"U 	c #33201E",
"V 	c #3A2421",
"W 	c #3A2522",
"X 	c #43312D",
"Y 	c #6C5E59",
"Z 	c #685A57",
"` 	c #695B58",
" .	c #998A7B",
"..	c #AA9C88",
"+.	c #B1A38D",
"@.	c #87786D",
"#.	c #5D4F4E",
"$.	c #655853",
"%.	c #67574F",
"&.	c #412622",
"*.	c #422723",
"=.	c #241715",
"-.	c #673C37",
";.	c #71423C",
">.	c #6B3F39",
",.	c #291719",
"'.	c #512D2F",
").	c #522E30",
"!.	c #311B1D",
"~.	c #623934",
"{.	c #70423C",
"].	c #241615",
"^.	c #5B4B45",
"/.	c #75685F",
"(.	c #948877",
"_.	c #AC9F8A",
":.	c #998B7C",
"<.	c #796963",
"[.	c #87786E",
"}.	c #6F5F5C",
"|.	c #9D8F7E",
"1.	c #9E9080",
"2.	c #9E907F",
"3.	c #988A7A",
"4.	c #665750",
"5.	c #492B27",
"6.	c #3A221F",
"7.	c #4C2C28",
"8.	c #6F413C",
"9.	c #3B2220",
"0.	c #4A292B",
"a.	c #4D2A2D",
"b.	c #221315",
"c.	c #432527",
"d.	c #442527",
"e.	c #291718",
"f.	c #462729",
"g.	c #341E1C",
"h.	c #6E413B",
"i.	c #53302C",
"j.	c #351F1C",
"k.	c #4A2B27",
"l.	c #786A5E",
"m.	c #70615E",
"n.	c #6E5E5C",
"o.	c #918376",
"p.	c #776862",
"q.	c #7C6D66",
"r.	c #786862",
"s.	c #39211F",
"t.	c #7B4941",
"u.	c #643B35",
"v.	c #351D1F",
"w.	c #2C181A",
"x.	c #391F21",
"y.	c #3F2324",
"z.	c #3B2123",
"A.	c #110C0E",
"B.	c #0B0A0C",
"C.	c #0C0A0C",
"D.	c #361E20",
"E.	c #261517",
"F.	c #3B2023",
"G.	c #5D3731",
"H.	c #7C4A42",
"I.	c #756760",
"J.	c #7F7068",
"K.	c #746460",
"L.	c #766761",
"M.	c #958679",
"N.	c #938477",
"O.	c #756661",
"P.	c #6B5B5A",
"Q.	c #6D5E5B",
"R.	c #3C2623",
"S.	c #75453E",
"T.	c #53302D",
"U.	c #251517",
"V.	c #3A2022",
"W.	c #201214",
"X.	c #0A090C",
"Y.	c #0F0B0D",
"Z.	c #1C1012",
"`.	c #4D2C2A",
" +	c #74453E",
".+	c #422623",
"++	c #8F8374",
"@+	c #7E6F68",
"#+	c #A79986",
"$+	c #B2A48E",
"%+	c #A39583",
"&+	c #83746A",
"*+	c #72625D",
"=+	c #3A2320",
"-+	c #71433D",
";+	c #412426",
">+	c #09090B",
",+	c #0E0B0D",
"'+	c #08090B",
")+	c #3C2123",
"!+	c #A29582",
"~+	c #87796F",
"{+	c #6B5B59",
"]+	c #756560",
"^+	c #A69885",
"/+	c #A99B88",
"(+	c #9C8E7E",
"_+	c #908275",
":+	c #958778",
"<+	c #766762",
"[+	c #635550",
"}+	c #3F2522",
"|+	c #341715",
"1+	c #306470",
"2+	c #4B9CAF",
"3+	c #50A5B8",
"4+	c #4FA4B8",
"5+	c #50A4B8",
"6+	c #4EA0B3",
"7+	c #35707E",
"8+	c #2D120F",
"9+	c #2C1919",
"0+	c #1E1113",
"a+	c #3E2421",
"b+	c #74675B",
"c+	c #A59885",
"d+	c #796A64",
"e+	c #988B7B",
"f+	c #746560",
"g+	c #72645E",
"h+	c #53433C",
"i+	c #653B36",
"j+	c #330E14",
"k+	c #558974",
"l+	c #5EADB1",
"m+	c #81D6BE",
"n+	c #61B4BA",
"o+	c #80D3BD",
"p+	c #6CBFBB",
"q+	c #72C5BC",
"r+	c #7BCFBD",
"s+	c #63B6BA",
"t+	c #83D7BE",
"u+	c #80D2B9",
"v+	c #39737E",
"w+	c #2D110F",
"x+	c #2F191C",
"y+	c #623A35",
"z+	c #4E3935",
"A+	c #7C6F66",
"B+	c #766661",
"C+	c #85766C",
"D+	c #908175",
"E+	c #908174",
"F+	c #756660",
"G+	c #3D2724",
"H+	c #341515",
"I+	c #376B71",
"J+	c #82D3B5",
"K+	c #8ADFBF",
"L+	c #6EC1BB",
"M+	c #7CD0BD",
"N+	c #73C6BC",
"O+	c #88DDBE",
"P+	c #6ABDBB",
"Q+	c #66B7B5",
"R+	c #639F84",
"S+	c #2B030E",
"T+	c #341D1F",
"U+	c #796D63",
"V+	c #8E7F73",
"W+	c #ADA08B",
"X+	c #9B8E7E",
"Y+	c #796B63",
"Z+	c #320C14",
"`+	c #598E75",
" @	c #8BDDB7",
".@	c #92E8C0",
"+@	c #8EE2BB",
"@@	c #64A084",
"#@	c #2B020E",
"$@	c #86796D",
"%@	c #6C5C5A",
"&@	c #87796E",
"*@	c #A29483",
"=@	c #796B64",
"-@	c #588E75",
";@	c #93E9C1",
">@	c #73635F",
",@	c #70615D",
"'@	c #81726A",
")@	c #2E0812",
"!@	c #70B598",
"~@	c #28000C",
"{@	c #877A6E",
"]@	c #6D5C5B",
"^@	c #B0A28E",
"/@	c #72635E",
"(@	c #3A2321",
"_@	c #2B0511",
":@	c #92E9C1",
"<@	c #65A58C",
"[@	c #36615A",
"}@	c #25000A",
"|@	c #271618",
"1@	c #9F9280",
"2@	c #7D6F67",
"3@	c #9A8B7C",
"4@	c #AD9F8A",
"5@	c #71615D",
"6@	c #422426",
"7@	c #2C0511",
"8@	c #91E6BF",
"9@	c #4D8171",
"0@	c #2F5753",
"a@	c #25000B",
"b@	c #A19481",
"c@	c #98897B",
"d@	c #85776D",
"e@	c #524140",
"f@	c #52302C",
"g@	c #301A1C",
"h@	c #2B0410",
"i@	c #639079",
"j@	c #8EDDB8",
"k@	c #9FEAC4",
"l@	c #95E8C1",
"m@	c #9EEAC4",
"n@	c #98E9C2",
"o@	c #9BEBC4",
"p@	c #62A088",
"q@	c #305954",
"r@	c #9BE4BF",
"s@	c #649F84",
"t@	c #502F2B",
"u@	c #6B5D52",
"v@	c #A99C87",
"w@	c #6F605D",
"x@	c #81736A",
"y@	c #675856",
"z@	c #635451",
"A@	c #5F504F",
"B@	c #4A3837",
"C@	c #56322E",
"D@	c #321B1D",
"E@	c #26000A",
"F@	c #8B9989",
"G@	c #B3E5C5",
"H@	c #D3E6CF",
"I@	c #BAEFCE",
"J@	c #D7F7DA",
"K@	c #C4F2D2",
"L@	c #BAE8C9",
"M@	c #528D79",
"N@	c #2E5652",
"O@	c #B9F0CE",
"P@	c #D6F1D6",
"Q@	c #78A38B",
"R@	c #230008",
"S@	c #281618",
"T@	c #54312D",
"U@	c #62524A",
"V@	c #70605E",
"W@	c #8E8074",
"X@	c #574847",
"Y@	c #463838",
"Z@	c #423534",
"`@	c #38201E",
" #	c #29030E",
".#	c #73947F",
"+#	c #BECEBB",
"@#	c #616866",
"##	c #C3CFBD",
"$#	c #CCF4D5",
"%#	c #E6FCE2",
"&#	c #87B39C",
"*#	c #204D4C",
"=#	c #CDF4D6",
"-#	c #EEFDE5",
";#	c #C1ECCE",
">#	c #A9AFA0",
",#	c #1B0000",
"'#	c #6B5E58",
")#	c #786963",
"!#	c #72635F",
"~#	c #6A5B59",
"{#	c #6E5E5B",
"]#	c #8D7F72",
"^#	c #83756B",
"/#	c #544544",
"(#	c #3E3030",
"_#	c #3A2C2C",
":#	c #38201F",
"<#	c #240007",
"[#	c #9CA293",
"}#	c #737A74",
"|#	c #22303D",
"1#	c #5A6261",
"2#	c #F7FFE9",
"3#	c #F6FFE9",
"4#	c #DCE6D2",
"5#	c #70847A",
"6#	c #164D4B",
"7#	c #2C5652",
"8#	c #F5FFE8",
"9#	c #F0F9E2",
"0#	c #A8AFA0",
"a#	c #534544",
"b#	c #6A5A58",
"c#	c #625352",
"d#	c #594A49",
"e#	c #675855",
"f#	c #72645D",
"g#	c #776B5F",
"h#	c #60504F",
"i#	c #675755",
"j#	c #6B5A59",
"k#	c #554645",
"l#	c #3F3131",
"m#	c #3B2D2D",
"n#	c #2B1416",
"o#	c #5D625B",
"p#	c #4B5355",
"q#	c #273540",
"r#	c #40494E",
"s#	c #B0B9AA",
"t#	c #F7FFEA",
"u#	c #DFEAD5",
"v#	c #CFDBC7",
"w#	c #657B72",
"x#	c #EEF8E2",
"y#	c #4A3D3C",
"z#	c #695A58",
"A#	c #635352",
"B#	c #5A4B4A",
"C#	c #665755",
"D#	c #5C4D4B",
"E#	c #413333",
"F#	c #4E3F3E",
"G#	c #3F3130",
"H#	c #2E1A1B",
"I#	c #161D25",
"J#	c #25323C",
"K#	c #283540",
"L#	c #273440",
"M#	c #7E867E",
"N#	c #C0CCBA",
"O#	c #778A7F",
"P#	c #798C81",
"Q#	c #43635D",
"R#	c #F4FEE7",
"S#	c #F3FDE6",
"T#	c #493D3C",
"U#	c #574948",
"V#	c #403232",
"W#	c #615250",
"X#	c #675756",
"Y#	c #554746",
"Z#	c #3C2E2E",
"`#	c #38211F",
" $	c #181F26",
".$	c #26323D",
"+$	c #364148",
"@$	c #596864",
"#$	c #486660",
"$$	c #2E5753",
"%$	c #47655F",
"&$	c #5A736B",
"*$	c #6C8177",
"=$	c #E2EDD7",
"-$	c #A2A99A",
";$	c #1D0002",
">$	c #625351",
",$	c #534543",
"'$	c #504140",
")$	c #483A3A",
"!$	c #5D4E4C",
"~$	c #625250",
"{$	c #695957",
"]$	c #524443",
"^$	c #283641",
"/$	c #2C484A",
"($	c #305853",
"_$	c #3C5D57",
":$	c #2A413D",
"<$	c #281517",
"[$	c #493C3C",
"}$	c #5D4E4D",
"|$	c #3D2F2F",
"1$	c #403233",
"2$	c #655553",
"3$	c #605250",
"4$	c #443230",
"5$	c #1A282A",
"6$	c #283F43",
"7$	c #293841",
"8$	c #2A4247",
"9$	c #2F5853",
"0$	c #2F5854",
"a$	c #2C4F4C",
"b$	c #2E5450",
"c$	c #2F5652",
"d$	c #294845",
"e$	c #1D3330",
"f$	c #291617",
"g$	c #2D191B",
"h$	c #603834",
"i$	c #412A27",
"j$	c #514342",
"k$	c #4C3E3E",
"l$	c #493A3A",
"m$	c #443636",
"n$	c #4F413F",
"o$	c #665654",
"p$	c #5C4D4C",
"q$	c #4D3F3E",
"r$	c #4B3D3C",
"s$	c #423332",
"t$	c #432724",
"u$	c #2E191B",
"v$	c #1B2C2D",
"w$	c #2A4647",
"x$	c #293A42",
"y$	c #2C494A",
"z$	c #2C4A4B",
"A$	c #2D4F4E",
"B$	c #2C514D",
"C$	c #274340",
"D$	c #26413E",
"E$	c #2D534F",
"F$	c #2F5653",
"G$	c #243D3B",
"H$	c #131415",
"I$	c #1F1214",
"J$	c #412623",
"K$	c #51413F",
"L$	c #655654",
"M$	c #645553",
"N$	c #635452",
"O$	c #594B49",
"P$	c #5F504E",
"Q$	c #685856",
"R$	c #3E302F",
"S$	c #26323C",
"T$	c #283440",
"U$	c #26373D",
"V$	c #274041",
"W$	c #2B4448",
"X$	c #1F292B",
"Y$	c #2E5451",
"Z$	c #2D5350",
"`$	c #223635",
" %	c #294946",
".%	c #274341",
"+%	c #243B3A",
"@%	c #223837",
"#%	c #131516",
"$%	c #351D20",
"%%	c #635553",
"&%	c #615150",
"*%	c #5E4F4E",
"=%	c #685857",
"-%	c #5B4D4B",
";%	c #423433",
">%	c #645453",
",%	c #212930",
"'%	c #27333D",
")%	c #26313B",
"!%	c #223434",
"~%	c #283C41",
"{%	c #213332",
"]%	c #1E2A2B",
"^%	c #1F2C2C",
"/%	c #1C2425",
"(%	c #1B1E20",
"_%	c #1A1D1F",
":%	c #131517",
"<%	c #645654",
"[%	c #4A3C3A",
"}%	c #5C4C4B",
"|%	c #413433",
"1%	c #4F4140",
"2%	c #60514F",
"3%	c #564846",
"4%	c #423434",
"5%	c #20282E",
"6%	c #27343F",
"7%	c #232E36",
"8%	c #1D2225",
"9%	c #1D2226",
"0%	c #1B1F22",
"a%	c #1C2225",
"b%	c #1B1F21",
"c%	c #1A1E20",
"d%	c #625452",
"e%	c #4A3C3B",
"f%	c #392220",
"g%	c #192027",
"h%	c #1D2328",
"i%	c #232C35",
"j%	c #564948",
"k%	c #635351",
"l%	c #625251",
"m%	c #695958",
"n%	c #5E504E",
"o%	c #1F282E",
"p%	c #242F38",
"q%	c #665655",
"r%	c #544644",
"s%	c #473939",
"t%	c #534443",
"u%	c #493C3B",
"v%	c #232D36",
"w%	c #1C2125",
"x%	c #605251",
"y%	c #473938",
"z%	c #433535",
"A%	c #413434",
"B%	c #15191E",
"C%	c #504241",
"D%	c #594B4A",
"E%	c #2F1A1C",
"F%	c #111314",
"G%	c #5C4E4C",
"H%	c #3A2624",
"I%	c #1A1E1F",
"J%	c #452E2B",
"K%	c #453737",
"L%	c #463837",
"M%	c #463737",
"N%	c #514140",
"O%	c #29181B",
"P%	c #121314",
"Q%	c #241518",
"R%	c #221517",
"S%	c #524241",
"T%	c #6A5A59",
"U%	c #605150",
"V%	c #655755",
"W%	c #28181B",
"X%	c #231518",
"Y%	c #5A4C4B",
"Z%	c #4C3F3E",
"`%	c #5B4C4B",
" &	c #574947",
".&	c #504141",
"+&	c #635453",
"@&	c #382220",
"#&	c #402522",
"$&	c #4A3D3D",
"%&	c #544545",
"&&	c #443635",
"*&	c #3D2D2D",
"=&	c #683E37",
"-&	c #71433C",
";&	c #6B3F38",
">&	c #3C2927",
",&	c #362C2B",
"'&	c #372A29",
")&	c #2F2423",
"!&	c #231415",
"~&	c #5D3534",
"{&	c #5A3333",
"]&	c #351E20",
"^&	c #5E3634",
"/&	c #2B1819",
"(&	c #18110B",
"  . + + + @ # $ % & + * = - ; > , @ @ ' ) ! ~ ~ {   . ] > ^ / ( _ @ + + + : < [ } + ",
"| 1 + + + @ # $ %   + 2 3 4 < = 5 @ @ ' 6 7 8 9 / 0 + a b 4 c d e @ + + + f g 4 h . ",
"i j . + + @ # k l m n o ~ p q r s t u u u u v w x y z A ~ p p B e @ + + + f C D E F ",
"G H . + + @ # 4 I J J K L M N O P Q R R R S T U V W X Y M Z ` B e @ + + +  .9 : ..+ ",
"I H . + + +.# @.#.$.%.&.*.=.-.;.>.,.'.'.'.).!.~.;.{.>.].*.&.^./.(._.+ + + :.<.[.m . ",
"}.6 |.1.2.m 3.4.5.6.7.8.8.9.0.'.a.b.c.c.c.d.e.f.'.'.a.g.h.8.i.j.k.l.:.2.2.o m.n.o.  ",
"p.q.7 g p.r.I s.t.u.v.'.'.w.x.y.z.A.B.B.B.B.C.D.y.y.z.E.'.'.F.G.H.&.I.J.3 K.}.L.M.0 ",
"2.2.N.O.P.P.Q.R.S.T.U.V.V.W.B.X.B.Y.Y.Y.Y.Y.Y.C.X.X.B.Z.V.V.,.`. +.+++: @+P.L.] #+. ",
"@ $+%+9 D &+*+=+-+;+>+B.B.,+Y.Y.Y.Y.Y.Y.Y.Y.Y.Y.Y.Y.Y.,+B.B.'+)+8..+!+' ~+{+]+; ^+. ",
"e /+(+9 _+:+<+[+}+U.|+1+2+3+4+3+4+5+3+4+3+4+3+5+4+3+4+6+7+8+9+0+a+b+c+%+B I d+< e+0 ",
"( ( D f+9 7 g+h+i+V.j+k+l+m+n+o+p+q+r+s+t+s+r+q+p+o+n+u+v+w+9+x+y+z+A+= B+C+2.n _ . ",
"{ { { D+E+C+F+G+;.;+H+I+J+p+K+L+m+M+N+O+P+O+N+M+m+L+K+Q+R+S+9+T+h..+U+m.p V+0 $++ + ",
"      W+0 X+Y+G+;.;+Z+`+ @.@.@.@.@.@.@.@.@.@.@.@.@.@.@+@@@#@9+T+h..+$@K.%@&@*@, ' } ",
"+ + + + + 1.=@G+;.;+Z+-@ @.@.@.@.@.@.@.@;@.@.@.@.@.@.@+@@@#@9+T+h..+g+>@,@p.J.'@e+F ",
"+ + + + + 2.L.O ;.;+)@-@ @.@.@.@.@.@.@.@!@.@.@.@.@.@.@+@@@~@e.T+h..+{@a a ( }.]@_+  ",
"+ + + + ^@m /@(@;.;+_@`+ @.@.@.@.@.@:@<@[@<@:@.@.@.@.@+@@@}@|@T+h..+1@. F : L.2@3@0 ",
"4@4@4@4@  (+5@s.-+6@7@`+ @.@.@.@.@.@8@9@0@9@8@.@.@.@.@+@@@a@|@v.8..+b@+.+  .9 c@..} ",
"/ 8 8 / { d@}.e@f@g@h@i@j@k@l@m@n@o@p@q@0@q@p@o@n@m@l@r@s@a@|@E.t@u@v@+.+ :.g 4 ^ . ",
"w@9 x@>@y@z@A@B@C@D@E@F@G@H@I@J@K@L@M@N@0@N@M@L@K@J@O@P@Q@R@|@S@T@U@: ^ m V+I ~ | . ",
"V@W@2 L.X@Y@Z@`@-+6@ #.#+#@###$#%#&#*#0@0@0@*#&#%#=#-#;#>#,#|@T+8..+'#)#)#!#~#{#]##+",
"}.c ^#,@/#(#_#:#;.;+<#[#}#|#1#2#3#4#5#6#7#6#5#4#3#3#8#9#0#,#|@T+h..+a#b#%@c#d#e#f#g#",
"h#i#p j#k#l#m#:#;.;+n#o#p#q#r#s#3#t#u#v#w#v#u#t#8#8#8#x#0#,#|@T+h..+y#z#p A#B#C#D#E#",
"F#A@p {+k#G#m#:#;.;+H#I#J#K#L#M#3#N#O#P#Q#P#O#N#R#S#S#x#0#,#|@T+h..+T#z#n.b#C#C#U#V#",
"W#X#p b#Y#V#Z#`#;.;+H# $.$K#K#+$@$#$$$0@0@0@$$%$&$&$*$=$-$;$|@T+h..+T#z#p >$,$'$)$l#",
"!$!$~${$W#X@]$s.;.;+H# $.$K#K#^$/$0@0@0@0@0@0@0@0@0@($_$:$<$|@T+h..+[$z#p }$E#Z#|$(#",
"E#1$'$y@{$2$3$4$~.x.H#5$6$7$8$/$9$0@0@0@0@0@0@0$a$b$c$d$e$f$|@g$h$i$j$b#p W#k$l$m$l#",
"l#(#n$o$p$q$r$s$t$|@u$v$w$x$y$z$A$0$0$d$N@0@B$C$D$E$F$G$H$,.|@I$J$K$L$%@p {$M$N$k#V#",
"O$d#P$Q$k#R$_#`@R 6@H# $S$K#T$T$U$V$W$X$Y$9$Z$`$ %.%+%@%#%e.|@$%8.*.%%{+&%B#*%=%-%;%",
">%Q$%@b#k#(#_#:#;.;+H# $.$K#K#S$,%'%K#)%!%~%{%]%^%/%(%_%:%e.|@T+h..+<%{$j$G#[%N$}%|%",
"1%2%p {+3%4%(#`#;.;+H# $S$5%6%K#7%8%9%9%0%a%b%b%b%b%b%c%:%e.|@T+h..+d%q ]$V#e%N$D#|%",
"p$o$p %@N$p$U#f%;.;+H#g%h%S$K#'%i%(%b%b%b%b%b%b%b%b%b%c%:%e.|@T+h..+j%{$k%D#A@q D#|%",
"l%>$L$%@p m%n%f%;.;+H#g%o%p%p%b%b%b%b%b%b%b%b%b%b%b%b%c%:%e.|@T+h..+a#{$q%>$>$>$r%V#",
"s%Y@t%=%{#A#u%`#;.;+H#g%v%w%(%b%b%b%b%b%b%b%b%b%b%b%b%c%:%e.|@T+h..+x%{$Y#y%s%y%z%l#",
"|$Z#q$y@n.&%A%:#;.;+H#B%0%b%b%b%b%b%b%b%b%b%b%b%b%b%b%c%:%e.|@T+h..+<%{$C%|$|$|$(#(#",
"]$j$D%z#{#&%A%`@;.;+E%F%_%b%b%b%b%b%b%b%b%b%b%b%b%b%b%c%:%e.|@T+h..+G%X#C%|$|$|$|$(#",
"M$y@b#%@p A#l$H%i+V.H#F%I%b%b%b%b%b%b%b%b%b%b%b%b%b%b%c%:%e.|@x+y+J%r%q%Y#K%L%M%4%(#",
"a#>$p p p {$l%N%}+U.O%P%I%b%b%b%b%b%b%b%b%b%b%b%b%b%b%c%:%Q%R%0+a+S%A#T%L$&%W#U%,$V#",
"X@N${$U%}$N$V%s.-+6@W%P%I%b%b%b%b%b%b%b%b%b%b%b%b%b%b%c%:%X%R%T+8..+Y%z#A#>%%@p -%E#",
"L$b#M$r$E#t%>%(@;.;+W%P%I%b%b%b%b%b%b%b%b%b%b%b%b%b%b%c%:%X%R%T+h..+Z%q%d#`%~#{$ &E#",
".&U%>$s%Z#C%+&@&;.;+W%P%I%b%b%b%b%b%b%b%b%b%b%b%b%b%b%c%:%X%R%T+h.#&$&X#C#i#y@3%Y@(#",
"l#1%%&&&|$l$*&=&-&;+W%P%I%b%b%b%b%b%b%b%b%b%b%b%b%b%b%c%:%X%R%T+h.;&>&,&D#D# &Y@'&)&",
"(#V#V#(#(#l#!&~&{&6@W%P%I%b%b%b%b%b%b%b%b%b%b%b%b%b%b%c%:%X%R%]&{&^&/&Y.|%;%E#(#)&(&"};
