/* XPM */
static char * terrain1_xpm[] = {
"42 42 93 2",
"  	c #312D29",
". 	c #322E29",
"+ 	c #312D28",
"@ 	c #282422",
"# 	c #2B2724",
"$ 	c #262221",
"% 	c #2E2A26",
"& 	c #2A2623",
"* 	c #2F2B27",
"= 	c #211D1D",
"- 	c #221E1D",
"; 	c #292522",
"> 	c #2A2624",
", 	c #262220",
"' 	c #292523",
") 	c #272321",
"! 	c #302C28",
"~ 	c #2C2825",
"{ 	c #252120",
"] 	c #2F2B26",
"^ 	c #2C2824",
"/ 	c #24201F",
"( 	c #272422",
"_ 	c #282421",
": 	c #221E1E",
"< 	c #2D2926",
"[ 	c #272320",
"} 	c #231F1E",
"| 	c #2E2A27",
"1 	c #2F2C27",
"2 	c #272421",
"3 	c #25211F",
"4 	c #231F1F",
"5 	c #24211F",
"6 	c #332F29",
"7 	c #201C1D",
"8 	c #262321",
"9 	c #2B2825",
"0 	c #2D2925",
"a 	c #2E2A25",
"b 	c #242020",
"c 	c #302C27",
"d 	c #262120",
"e 	c #231E1E",
"f 	c #292623",
"g 	c #2B2723",
"h 	c #252220",
"i 	c #2C2925",
"j 	c #272322",
"k 	c #24201E",
"l 	c #201C1C",
"m 	c #2A2723",
"n 	c #312E29",
"o 	c #2D2A26",
"p 	c #211E1D",
"q 	c #242120",
"r 	c #282522",
"s 	c #322E28",
"t 	c #211C1D",
"u 	c #2B2725",
"v 	c #1F1C1B",
"w 	c #1E1B1A",
"x 	c #1E1A1A",
"y 	c #1F1C1C",
"z 	c #1B1718",
"A 	c #171414",
"B 	c #191515",
"C 	c #1D1A1A",
"D 	c #1C1819",
"E 	c #1A1717",
"F 	c #151212",
"G 	c #1D1919",
"H 	c #161313",
"I 	c #1C1818",
"J 	c #1F1B1B",
"K 	c #1A1616",
"L 	c #191616",
"M 	c #221F1C",
"N 	c #1C1919",
"O 	c #181414",
"P 	c #1E1B1B",
"Q 	c #1B1717",
"R 	c #151313",
"S 	c #161212",
"T 	c #1B1818",
"U 	c #141111",
"V 	c #181515",
"W 	c #171313",
"X 	c #201D1D",
"Y 	c #141212",
"Z 	c #14110F",
"` 	c #140F0C",
" .	c #110B04",
"  . . . . . + @ @ + . # $ % & $ * . . + @ = - - ; + . > , % ' ) ! . . . . ~ { % . . ",
"& ] . . . . + @ @   . ^ / ( { $ * . . + _ { ' { ; . . # / _ { ) ! . . . . ~ / _ % . ",
": #   . . . + @ ) < % ; : = = , * . . + _ $ # , ) % % @ = = = [ ! . . . . ~ } { ~ . ",
": #   . . . + @ : / { / } : = { | + + 1 2 } 3 4 / { 5 } } : = ) ! . . . . ~ { ^ + . ",
": # . . . 6 ! _ 7 : ' ~ ~ # ) 4 ) ; ; @ / { # ~ ~ & / 8 9 # , ) ! . . . . ~ / ) % . ",
": @ 0 0 0 a ~ , 7 / % . . + & = - 3 @ ) 4 @ + . . * $ &     ' { ^ % 0 a 0 ; : = &   ",
"4 b { / 4 4 4 / : / % . . . & = - # ! * ) _ + . . * $ ' ! c ; : 4 3 , d / } = 4 #   ",
"< < & } = 7 e f @ { % . .   & = : ~ . + @ _ + . . * $ / ) ) / = - @ 0 ~ { 7 } g c . ",
". 6 ] 3 h , 4 @ @ / ; ~ ~ ~ ) = - _ ~ # { { # ~ 0 # / = 7 = , , / i . + j = : & * . ",
"! ! i { & # / / 3 / 3 / k 3 3 / / 3 3 } } 3 { } } } 4 } = : ' # 3 # ! | $ : / { ^ . ",
") ) , } { { 4 & % % % @ 5 # % % % % & / f % ~ { l 4 # @ = = { , } { ) , } ) 0 % c . ",
"; ; ' ' ' ) / < . . . # , * . . . . % { 0 6 ! ) l } ; ) } @ ' ) } $ ) : = ;   6 . . ",
"+ + + +   0 { < . . . # , * . . . . a { & * < , } { { 4 , | . 0 { & m } = ) % * + . ",
". . . . . a , ~ . . + # , * . . . . a / 4 , , } ) % % ; , * . % / / 3 : : / { $ ~ n ",
". . . . . 0 5 ) & & & , , * . . . . % 4 = 5 ; 3 ; . . # / @ & ) } ) > # # ) = = &   ",
". . . . . o 4 = p : { / q ~ ] % % ] # } = $ ^ , 2 % % r - : 3 3 / ~ . . . ~ } { ^ . ",
"+ + + + s 0 4 = = } # ' } / 3 3 { , / - - / { 4 } / 3 / : : ' > { ~ . . . ~ { # + . ",
"; ; ; ; & ) : = = } ) , - = t 4 & ~ r k @ u # ^ ) = = 8 ; / , ) / i . . . ~ / _ % . ",
"- { $ : v w x x x x l l x x y , c . % { 0 . . s ^ : = @ # / = = : f % % < ' : - &   ",
"- ' ^ } z A A A A B x C A A D { ] + ~ { ~ . . . ~ : l : } = l l l : } 4 4 : l = ; * ",
"= { 8 - E F F F F A x G H F I } ) @ , / ~ . . . ~ = I C J I K K K L D l = x I J - M ",
"C J = l E F F F F A x x E E x = = = = } ; i 0 0 r = N x J O F F F F L l = P I J N F ",
"L G = l E F F F F A x = l l l J J J J l - } } } - l J l J O F F F F L l = l J J Q F ",
"x l = l Q R F S F A x = = = x L L L L K x = = = x L L x J O F F F F L l = x E L O F ",
"G G x l x Q Q Q Q I J J x l T F F F F H C y x l G F F T J O U F F F L l = G H U F F ",
"H F L J l J x x J l = C Q J T F F F F H C x Q P C V O G J K O O A O T l = x V A W F ",
"F F L J N V V B I = = l J l T F F F F H C X J l l P x l l J x x x x l = = l P x Q F ",
"T T G l E F F F K l C I G J T F F F F H C = = C x l C I G l x C = = = l x I G l N H ",
"P y = l E F F F K J L F V J G V V V V L x = l T G J B F V J N I l = = l K F A x N H ",
"B x = l T H H H Q J L F V J l J J J J J l X l J y J L F B J l l = = = l K S V P N H ",
"N J = = x N G G J l x N G l = l N Q G l C Q Q Q x l C N x l = = = G G l P N G l N H ",
"x x J = = l P x x J l l J = = x O F L J E F F F Q l J l l J x J l N I l J x x x E S ",
"A W K l = x V A A B J C Q J = J B H E J K F F F Q J Q G J L W E l l l l Q A A A H F ",
"Y U B J = C A F F A x J x l = l x G P l K F F F Q y x J J O F B l = = l K F F F F F ",
"L L I l = x A F F W x l x x x x x l = = N L L E C l = = y Q K N l J J J L Y F F F F ",
"J J l = = x V A A V P G A W W W O G = = l J J l l l l l l l l l l I T J Q A A A H F ",
"K x = = = l x x C x l N H F F F R G = = = P T J x K K L I l = = = J P l J x C C E H ",
"T P l x G P l = = = = N H F F F H G l x l J N J G F F F V J = l x G x l P P = = N H ",
"J X J V H E l = l l l N H F F F H G P Q x l y X G H F F V J = P V H E J T I l l T H ",
"L x x A U K l = x Q P N H F F F H N l P l x Q x G H F F V J = x A Y L J J y l Q A F ",
"F L E H F A T N L H K L F F F F F L N N I L A E K F F F A Q N E H F O T N N T A Z ` ",
"F F F F F F H H F F F F F F F F F F H H H F F H S F F F F H H S F F F H H H H F `  ."};
