/* XPM */
static char * wall_xpm[] = {
"42 42 348 2",
"  	c #AD9F8B",
". 	c #AFA18C",
"+ 	c #B0A28D",
"@ 	c #B1A38E",
"# 	c #AA9C89",
"$ 	c #897A6F",
"% 	c #8B7D71",
"& 	c #AC9E8A",
"* 	c #96887A",
"= 	c #82736A",
"- 	c #A09280",
"; 	c #918375",
"> 	c #83746B",
", 	c #A69886",
"' 	c #AB9D89",
") 	c #897C70",
"! 	c #6E5F5C",
"~ 	c #70605D",
"{ 	c #8F8174",
"] 	c #938577",
"^ 	c #A09281",
"/ 	c #8F8074",
"( 	c #86776D",
"_ 	c #A89A87",
": 	c #988A7B",
"< 	c #807168",
"[ 	c #A09180",
"} 	c #AFA18D",
"| 	c #928477",
"1 	c #A29482",
"2 	c #97897A",
"3 	c #7A6B65",
"4 	c #887A6F",
"5 	c #A69986",
"6 	c #897B70",
"7 	c #7E6F67",
"8 	c #8E8073",
"9 	c #7D6E67",
"0 	c #AEA08B",
"a 	c #948678",
"b 	c #7A6A64",
"c 	c #7E7067",
"d 	c #85766D",
"e 	c #A99B87",
"f 	c #998B7B",
"g 	c #796A63",
"h 	c #A19281",
"i 	c #736360",
"j 	c #978879",
"k 	c #887A70",
"l 	c #84756C",
"m 	c #9F9180",
"n 	c #A19382",
"o 	c #8D7F73",
"p 	c #6D5D5B",
"q 	c #817369",
"r 	c #A79986",
"s 	c #8A7C70",
"t 	c #807269",
"u 	c #8C7D71",
"v 	c #84766C",
"w 	c #776762",
"x 	c #807169",
"y 	c #9B8D7D",
"z 	c #AEA08C",
"A 	c #71615E",
"B 	c #968879",
"C 	c #72625E",
"D 	c #7A6B64",
"E 	c #7E6F68",
"F 	c #7B6B65",
"G 	c #746460",
"H 	c #72635F",
"I 	c #6F5F5C",
"J 	c #A49684",
"K 	c #746560",
"L 	c #7D6E66",
"M 	c #776863",
"N 	c #796A64",
"O 	c #7C6D66",
"P 	c #776862",
"Q 	c #73645F",
"R 	c #998A7B",
"S 	c #AA9C88",
"T 	c #B1A38D",
"U 	c #6B5B5A",
"V 	c #8E7F73",
"W 	c #998B7C",
"X 	c #9A8C7C",
"Y 	c #887A6E",
"Z 	c #8D7F72",
"` 	c #8A7B70",
" .	c #7E7068",
"..	c #958779",
"+.	c #9A8B7C",
"@.	c #928476",
"#.	c #988A7A",
"$.	c #82746B",
"%.	c #85766C",
"&.	c #A99B88",
"*.	c #796963",
"=.	c #87786E",
"-.	c #9D8F7E",
";.	c #9E9080",
">.	c #9E907F",
",.	c #6B5A5A",
"'.	c #6F5F5D",
").	c #88796F",
"!.	c #A69885",
"~.	c #7F7068",
"{.	c #9D8F7F",
"].	c #70615E",
"^.	c #6E5E5C",
"/.	c #918376",
"(.	c #786862",
"_.	c #786863",
":.	c #72625F",
"<.	c #71615D",
"[.	c #A59785",
"}.	c #AB9E89",
"|.	c #83756B",
"1.	c #8C7E72",
"2.	c #766761",
"3.	c #958679",
"4.	c #938477",
"5.	c #756661",
"6.	c #8D7E72",
"7.	c #7D6F67",
"8.	c #87796E",
"9.	c #B2A48E",
"0.	c #A39583",
"a.	c #83746A",
"b.	c #8B7C71",
"c.	c #786963",
"d.	c #8E8074",
"e.	c #85776C",
"f.	c #9C8E7D",
"g.	c #6C5C5A",
"h.	c #6D5D5A",
"i.	c #87796F",
"j.	c #6B5B59",
"k.	c #756560",
"l.	c #9C8E7E",
"m.	c #908275",
"n.	c #958778",
"o.	c #7B6C65",
"p.	c #766762",
"q.	c #70615D",
"r.	c #8F8175",
"s.	c #7C6E66",
"t.	c #988B7B",
"u.	c #A09381",
"v.	c #A19381",
"w.	c #9F9181",
"x.	c #7B6D66",
"y.	c #6B5A59",
"z.	c #958678",
"A.	c #85776D",
"B.	c #766661",
"C.	c #908175",
"D.	c #908174",
"E.	c #82746A",
"F.	c #B0A28E",
"G.	c #B2A48F",
"H.	c #86786D",
"I.	c #86786E",
"J.	c #83756C",
"K.	c #ADA08B",
"L.	c #9B8E7E",
"M.	c #A29483",
"N.	c #A49683",
"O.	c #81726A",
"P.	c #73635F",
"Q.	c #928376",
"R.	c #6D5C5B",
"S.	c #98897B",
"T.	c #817269",
"U.	c #8C7D72",
"V.	c #7C6D65",
"W.	c #AD9F8A",
"X.	c #71605E",
"Y.	c #71625E",
"Z.	c #6C5D5B",
"`.	c #918275",
" +	c #81736A",
".+	c #6F605D",
"++	c #675856",
"@+	c #635451",
"#+	c #625251",
"$+	c #645452",
"%+	c #695957",
"&+	c #625351",
"*+	c #665755",
"=+	c #7F7169",
"-+	c #98897A",
";+	c #897A70",
">+	c #6E5D5B",
",+	c #6E5D5C",
"'+	c #70605E",
")+	c #574847",
"!+	c #463838",
"~+	c #463837",
"{+	c #4D3F3E",
"]+	c #635452",
"^+	c #5E4F4E",
"/+	c #483A3A",
"(+	c #473939",
"_+	c #5B4C4B",
":+	c #6A5A58",
"<+	c #695958",
"[+	c #695A58",
"}+	c #71625D",
"|+	c #6A5B59",
"1+	c #6E5E5B",
"2+	c #544544",
"3+	c #3E3030",
"4+	c #3D2F2F",
"5+	c #3C2E2E",
"6+	c #5C4D4C",
"7+	c #413332",
"8+	c #3F3131",
"9+	c #594A49",
"0+	c #6F605B",
"a+	c #60504F",
"b+	c #665655",
"c+	c #584A48",
"d+	c #524443",
"e+	c #534443",
"f+	c #514343",
"g+	c #625352",
"h+	c #675855",
"i+	c #72645D",
"j+	c #776B5F",
"k+	c #675755",
"l+	c #554645",
"m+	c #473938",
"n+	c #635352",
"o+	c #544545",
"p+	c #9D8E7E",
"q+	c #5B4C4A",
"r+	c #615250",
"s+	c #645453",
"t+	c #4A3C3B",
"u+	c #524342",
"v+	c #5A4B4A",
"w+	c #5C4D4B",
"x+	c #413333",
"y+	c #4E3F3E",
"z+	c #5F504F",
"A+	c #3F3130",
"B+	c #685957",
"C+	c #685857",
"D+	c #685856",
"E+	c #655553",
"F+	c #4A3B3B",
"G+	c #514342",
"H+	c #574948",
"I+	c #403232",
"J+	c #675756",
"K+	c #554746",
"L+	c #483A39",
"M+	c #60514F",
"N+	c #514241",
"O+	c #4F4140",
"P+	c #4F4241",
"Q+	c #534543",
"R+	c #615251",
"S+	c #4A3C3C",
"T+	c #504140",
"U+	c #5D4E4C",
"V+	c #625250",
"W+	c #564747",
"X+	c #615150",
"Y+	c #443636",
"Z+	c #605150",
"`+	c #514242",
" @	c #5D4E4D",
".@	c #403233",
"+@	c #645553",
"@@	c #564847",
"#@	c #665654",
"$@	c #5A4A49",
"%@	c #564746",
"&@	c #4B3D3D",
"*@	c #655654",
"=@	c #524343",
"-@	c #493B3A",
";@	c #493B3B",
">@	c #4C3E3E",
",@	c #493A3A",
"'@	c #4F413F",
")@	c #4C3E3D",
"!@	c #5F514F",
"~@	c #645554",
"{@	c #594B49",
"]@	c #5F504E",
"^@	c #3E302F",
"/@	c #5A4B49",
"(@	c #433535",
"_@	c #594B4A",
":@	c #5B4D4B",
"<@	c #423433",
"[@	c #544644",
"}@	c #504241",
"|@	c #4B3D3C",
"1@	c #625452",
"2@	c #4E3F3F",
"3@	c #655554",
"4@	c #4A3C3A",
"5@	c #5C4C4B",
"6@	c #413433",
"7@	c #564846",
"8@	c #423434",
"9@	c #403231",
"0@	c #4E403F",
"a@	c #4D403F",
"b@	c #635453",
"c@	c #5B4D4C",
"d@	c #584947",
"e@	c #6D5E5C",
"f@	c #6B5C5A",
"g@	c #635351",
"h@	c #4D3E3D",
"i@	c #534544",
"j@	c #3D2F30",
"k@	c #5E4F4D",
"l@	c #6A5A59",
"m@	c #453737",
"n@	c #3C2E2F",
"o@	c #6D5D5C",
"p@	c #3B2D2D",
"q@	c #5D4D4C",
"r@	c #524442",
"s@	c #584948",
"t@	c #4C3D3D",
"u@	c #453736",
"v@	c #463737",
"w@	c #5C4E4C",
"x@	c #6C5C5B",
"y@	c #574947",
"z@	c #504141",
"A@	c #564745",
"B@	c #3D2E2F",
"C@	c #443635",
"D@	c #594A48",
"E@	c #372A29",
"F@	c #2F2423",
"G@	c #18110B",
"  . + + + @ # $ % & + * = - ; > , @ @ ' ) ! ~ ~ {   . ] > ^ / ( _ @ + + + : < [ } + ",
"| 1 + + + @ # $ %   + 2 3 4 < = 5 @ @ ' 6 7 8 9 / 0 + a b 4 c d e @ + + + f g 4 h . ",
"i j . + + @ # k l m n o ~ p p q r @ @ & s > * t ( m n u ~ p p v e @ + + + f w x y z ",
"A B . + + @ # 4 C D E F G H I < J     _ 4 K L M N E O P Q H ! v e @ + + + R 9 : S + ",
"C B . + + T # $ U Q V W X : d P Y V Z ` b  ...+.X @.N l : #.$.%.&.@ + + + W *.=.m . ",
"I 6 -.;.>.m X < ,.N ^ + +   | ~ '.9 ).d M ` # + + !.> @.. 0 { ~.: m {.>.>.o ].^./.  ",
"P O 7 g P (._.P :.D n @ @ . ] I <.] S [.=.` }.@ @ r |./ &.e 1.A w 9 x ~.3 G I 2.3.0 ",
">.>.4.5.U U i { 6.7.^ + + 0 4.I C : + & ` ` ' + + , = D 8.=.3 p A Z {.: E U 2.] r . ",
"@ 9.0.9 x a.(.Z b.c.d.y y W e.p '.$ X 2 ~.~.* y f.a N g.h.I x > N y @ ' i.j.k.; !.. ",
"e &.l.9 m.n.c.N 9 o.7.F P L O N N 9 O p.M O 9 c.K 5._.G p q.r.B s.n.&.0.v C N < t.0 ",
"( ( x K 9 7 P /.u.v.w.% x.B n v.v.v.| D m.v.y ~.y.M z.b.~ '.9 ~.Q 9 A.= B.%.>.n _ . ",
"{ { { C.D.%.o.{.T @ } B E.J @ @ F.@ m < l.G.# H.U 5.o v _.` m.I.B.J.A.].p V 0 9.+ + ",
"      K.0 L.< {.T @ } * = 0.@ + + + m  .a , - = G 7 t (.x J . >.7 m.] G g.8.M., ' } ",
"+ + + + + ;.x f.z .   z.= N.@ + + + [ 3 c.O.x B.4 1 0.u = J + m o.3 9 P.q.P ~.O.t.z ",
"+ + + + + >.O =.4.| Q.= x J @ T T @ ^ *.U L 1.s.{ z + ..D u ] 4 p.I.a a a ( I R.m.  ",
"+ + + + F.m c.p '.H 7 N o.W J 0.0.0.n.B.U > S.T.=.n 0.U.~ ~ V.s.P X z . z : 2.7.+.0 ",
"W.W.W.W.  l.w U g.p.../ G *.O 7.x O.o.~ X.c.E _.w O O c.Y.Y./ n.9 y + T + R 9 S.S } ",
"/ 8 8 / { A.C p Z.P.I.E.'.g.j.c.`.: U.c.s 2 #.2 8.I p v / D  +( N y + T + W g 4 ^ . ",
".+9  +P.++@+#+#+#+$+j.%+&+&+*+T.r @ m =+y } + z -+:.! ;+a b >+,+P.{ w.^ m V C ~ | . ",
"'+d.2 2.)+!+~+!+~+{+]+^+/+(+_+ .0.& y ~.l.T + + : C :+Y.5.h.<+[+j.}+2.c.c.H |+1+Z r ",
"I c |.q.2+3+4+4+5+!+#+6+7+8+9+G A.s O.N l.T T } : 0+9+a+b+c+d+e+d+f+_+:+g.g+9+h+i+j+",
"a+k+p y.l+8+3+3+4+m+&+n+o+2+#+p ^.p g.P.V -.p+l.% p q+r+s+t+4+3+3+3+u+[+p n+v+*+w+x+",
"y+z+p j.l+A+3+3+4+m+&+g.:+:+%+B+C+C+D+:+<.B.B.5.q.%+*+%+E+F+4+3+3+4+G+[+^.:+*+*+H+I+",
"r+J+p :+K+I+8+8+3+L+]+p p p M+N+O+P+O+Q+]+U g.U R+u+G+M+s+S+4+3+3+3+G+[+p &+Q+T+/+8+",
"U+U+V+%+r+)+)+)+W+v+k+b+X+B+9+8+4+3+4+Y+a+++Z+D+6+I+3+9+]+F+5+4+4+4+`+[+p  @x+5+4+3+",
"x+.@T+++%+E++@+@J+j.g.M+@@#@$@I+3+3+4+Y+M+g+%@+@M+&@t+ @*@=@-@;@-@;@)+:+p r+>@,@Y+8+",
"8+3+'@#@6+{+)@{+_+j.g.C+#@:+9+I+3+3+4+Y+!@:+*+:+%+~@s+D+:+#@s+s++@+@D+g.p %++@]+l+I+",
"{@9+]@D+l+^@4+4+2+D+M+/@]@C+9+8+4+4+5+(@!@p j.Z+]+<+M+_@]@%+]+Z+j.>+p j.X+v+^+C+:@<@",
"s+D+g.:+l+3+4+3+[@*@}@3+)@+@^+{+|@)@|@O+1@p :+9+ @*@2@3+{+3@ @c+:+p ^.%+G+A+4@]+5@6@",
"O+M+p j.7@8@x+8@%@*@G+9@)@3@:+b++@+@+@*+[+j.:+b+C+*+0@8+a@#@[+C+g.g.g.B+d+I+t+]+w+6@",
"6+#@p g.]+6+6+6+b@:+r+w+M+:+^.%+c@)+z+%+M+)+)+d@&+%+Z+w+M+|+e@^.f@M+z+%+g@w+z+B+w+6@",
"#+&+*@g.p <+]+#+&++@[+D++@j.p +@;@4+N+*@2+8+8+I+)+%+*@k+:+E+&+b+:+6+_+%+b+&+&+&+[@I+",
"(+!+e+C+1+n+{+!+!+2@$+M+K+k+^.3@h@8@i@*@Q+j@j@8+)+#@@@k@*@}@~+2+B+j.l@%+K+m+(+m+(@8+",
"4+5+{+++^.X+m@n@5+!+&+k+&+:+o@:+R+^+$+D+d+3+4+A+%@B+g@b++@;@p@0@D+^.^.%+}@4+4+4+3+3+",
"d+G+_@[+1+X+m@5+n@!+&+B+r+M+Z+M+r+C+p j.q@r@r@d+]@g.^.p D+s@N+v+B+*@*@J+}@4+4+4+4+3+",
"+@++:+g.p n+t@m@m@{+$+^+/+u@m@u@,@]@p p j.D+*@C+<+%+%+%+%+%+<+j.|+v+/@b+K+m@~+v@8@3+",
"i@&+p p p %+n+X+X+n+<+_+7+5+4+4+x+w@x@p p E+9+*@]+e+}@}@c+%+^.^.g.3@3@l@*@X+r+Z+Q+I+",
")+]+%+Z+ @]+f@>+1+1+R.:@<@4+3+3+8@q@D+X+D+*@5@#@ @<@4+4+|@*+^.%+M+ @]+[+n+s+g.p :@x+",
"*@:++@|@x+e+<+p j.B+j.6+<@4+3+3+8@U+$+l+&+|+++:+U+8@3+4+)@*+^.]+t+x+2+b+9+_+|+%+y@x+",
"z@Z+&+(+5+}@C+Z.R+A@s+c@x+4+3+3+8@6+%+*@%+n+%@]+6+8@3+4+|@*@p #+!+B@G+J+*+k+++7@!+3+",
"8+O+o+C@4+,@s@_+N+m@i@}@I+3+3+3+I+}@_+5@_+u+m@d+}@I+3+4+!+@@:@2+(@j@F+D@w+w+y@!+E@F@",
"3+I+I+3+3+8+x+x+I+8+I+I+3+3+3+3+3+I+x+6@x+I+8+I+I+3+3+3+8+x+x+I+8+3+8+x+6@<@x+3+F@G@"};
