/* XPM */
static char *_182a698dcba489bbb792f82096f58c5VtLCtDpJmCAq6xU1[] = {
/* columns rows colors chars-per-pixel */
"29 29 7 1 ",
"  c #110A03",
". c #3E3030",
"X c #6D5D5B",
"o c #0A98D8",
"O c #49E3DA",
"+ c #B0A28D",
"@ c #A4FFFA",
/* pixels */
"@@@@OOO@@O@@@OO@O@@@OOO@@OO@@",
"O@@@O@O@@O@@@OOOO@@@O@O@@OOO@",
"O@@@OOOOOO@@@OOOO@@@OOOOOO@O@",
"OOOOOooOoOOOOOooOOOOOooOOOOOo",
"oOoOOooOOOOoOOooOOoOOooOoOOoo",
"oooooooooooooooooooooooooooo ",
"                            +",
"XXXXX+++X++++X++XX+XXXXXXX+++",
"++++X+++X++++X++XXXX++X+XX+++",
"++++X+++X++++XXXX++X++XXXXXX+",
"++++XXXXX++++XX+X++XXXX+++XX+",
"++++XXX+XXXXXXXXXXXXX+X+++X++",
"XXXXXXXXXXX++X+++XX+XXX+++XX+",
"X+X....X..X++X+++XXXXXXXXXXX+",
"XXX....X..XXXX+++X.X....XX.X.",
".XX....XXXXXXXXXXXXX....XXXX.",
"XXX....XXX....XXX..X....XX...",
"..XXXXXX.X....X.X..X....XX...",
"..X...XXXX....XXXXXXXXXXXXXX.",
"XXX...X..X....XX.X..X.XXX..X.",
".XX...X..XXXXXXXXX..XXXXX..X.",
"XXXXXXXXXXX..X...XXXXXX.XXXX.",
"..XX...X.XX..X...X.X..XXX....",
"..XX...XXXXXXX...XXX..XXX....",
"XXXX...X....XXXXXXXXXXX.X....",
".XXXXXXX....XXX.X...XXXXXXXX.",
"XX..XXXX....X.XXX...XX..X.XX.",
".X..XX.X....XXX.X...XX..XXX..",
"............................ "
};
