/* XPM */
static char * items_xpm[] = {
"42 43 251 2",
"  	c None",
". 	c #22190E",
"+ 	c #423324",
"@ 	c #433324",
"# 	c #433425",
"$ 	c #433325",
"% 	c #423224",
"& 	c #423325",
"* 	c #412F22",
"= 	c #3F271E",
"- 	c #402B20",
"; 	c #412E21",
"> 	c #3E261E",
", 	c #3D221B",
"' 	c #3E231C",
") 	c #3D231C",
"! 	c #3E261D",
"~ 	c #3E241C",
"{ 	c #402A20",
"] 	c #3F291F",
"^ 	c #412E22",
"/ 	c #3E251D",
"( 	c #423124",
"_ 	c #402D21",
": 	c #3D211B",
"< 	c #3F281F",
"[ 	c #412D21",
"} 	c #423023",
"| 	c #402C21",
"1 	c #3F281E",
"2 	c #3D201B",
"3 	c #3F2A1F",
"4 	c #3E271E",
"5 	c #3B261D",
"6 	c #3A2A1E",
"7 	c #3A291E",
"8 	c #371E18",
"9 	c #371C18",
"0 	c #38221A",
"a 	c #3A241C",
"b 	c #3D221C",
"c 	c #402A1F",
"d 	c #3E241D",
"e 	c #3D241D",
"f 	c #3A221A",
"g 	c #5B1724",
"h 	c #601125",
"i 	c #5F1225",
"j 	c #5F1325",
"k 	c #5F1125",
"l 	c #601225",
"m 	c #5B1824",
"n 	c #3E3122",
"o 	c #423424",
"p 	c #3E281F",
"q 	c #433525",
"r 	c #402C20",
"s 	c #311F17",
"t 	c #241B12",
"u 	c #B22D1B",
"v 	c #F07508",
"w 	c #5B1924",
"x 	c #22150E",
"y 	c #311C15",
"z 	c #3D201A",
"A 	c #433526",
"B 	c #321A15",
"C 	c #A32B1B",
"D 	c #B52D1B",
"E 	c #A32C1C",
"F 	c #35251B",
"G 	c #3C241C",
"H 	c #21120B",
"I 	c #241B10",
"J 	c #3B241B",
"K 	c #3D2C20",
"L 	c #5D1925",
"M 	c #5D1524",
"N 	c #381F19",
"O 	c #3F261E",
"P 	c #372019",
"Q 	c #5B1E26",
"R 	c #B12D1C",
"S 	c #B12D1B",
"T 	c #5A1B25",
"U 	c #372018",
"V 	c #341F18",
"W 	c #621126",
"X 	c #610F26",
"Y 	c #341D17",
"Z 	c #351E17",
"` 	c #610F25",
" .	c #630D26",
"..	c #611226",
"+.	c #382B1E",
"@.	c #413023",
"#.	c #423123",
"$.	c #382A1E",
"%.	c #611126",
"&.	c #38281D",
"*.	c #37271C",
"=.	c #170D05",
"-.	c #170E06",
";.	c #362019",
">.	c #170D06",
",.	c #181007",
"'.	c #392C1F",
").	c #160C05",
"!.	c #170F06",
"~.	c #3A2B1F",
"{.	c #1E120A",
"].	c #620F26",
"^.	c #620E26",
"/.	c #1F140B",
"(.	c #38241B",
"_.	c #351E18",
":.	c #1F130B",
"<.	c #20150C",
"[.	c #361F18",
"}.	c #3F2B20",
"|.	c #413022",
"1.	c #3E2B1F",
"2.	c #21130B",
"3.	c #23190F",
"4.	c #3C241D",
"5.	c #2E1D14",
"6.	c #5F1726",
"7.	c #312519",
"8.	c #3C251C",
"9.	c #413123",
"0.	c #3C211B",
"a.	c #3D241C",
"b.	c #3C201B",
"c.	c #32261A",
"d.	c #1E160C",
"e.	c #1C1109",
"f.	c #1B0F08",
"g.	c #1C1008",
"h.	c #2E1B13",
"i.	c #2A1915",
"j.	c #291614",
"k.	c #311A16",
"l.	c #2B1714",
"m.	c #2E1915",
"n.	c #3A211A",
"o.	c #382019",
"p.	c #341C16",
"q.	c #5F1525",
"r.	c #110A03",
"s.	c #190E07",
"t.	c #2E1913",
"u.	c #241411",
"v.	c #341C17",
"w.	c #3C201A",
"x.	c #3C221B",
"y.	c #2A1714",
"z.	c #2E1916",
"A.	c #381E19",
"B.	c #361D18",
"C.	c #2D1A16",
"D.	c #271513",
"E.	c #301A16",
"F.	c #3B201A",
"G.	c #2D1815",
"H.	c #2E1914",
"I.	c #571622",
"J.	c #B02C1B",
"K.	c #23130D",
"L.	c #261411",
"M.	c #371E19",
"N.	c #281613",
"O.	c #3A1F1A",
"P.	c #2C1715",
"Q.	c #2F1A16",
"R.	c #261513",
"S.	c #351D18",
"T.	c #391F1A",
"U.	c #281513",
"V.	c #2C1815",
"W.	c #331B17",
"X.	c #3E211B",
"Y.	c #2F1916",
"Z.	c #391F19",
"`.	c #2C1612",
" +	c #620D26",
".+	c #130B04",
"++	c #321B15",
"@+	c #331C17",
"#+	c #311A15",
"$+	c #1F100A",
"%+	c #1E1009",
"&+	c #1F1009",
"*+	c #1A0F08",
"=+	c #180E07",
"-+	c #140B04",
";+	c #150C05",
">+	c #170D07",
",+	c #1A0E07",
"'+	c #1E100A",
")+	c #301915",
"!+	c #321B17",
"~+	c #371D19",
"{+	c #261413",
"]+	c #341C18",
"^+	c #251413",
"/+	c #241312",
"(+	c #361D17",
"_+	c #1D0F08",
":+	c #261410",
"<+	c #321B16",
"[+	c #351C17",
"}+	c #2C1712",
"|+	c #351C18",
"1+	c #3A201A",
"2+	c #381E18",
"3+	c #21110D",
"4+	c #1D100C",
"5+	c #271511",
"6+	c #2D1912",
"7+	c #1D0F0A",
"8+	c #251411",
"9+	c #281610",
"0+	c #27150F",
"a+	c #3B201B",
"b+	c #21110C",
"c+	c #2E1815",
"d+	c #281512",
"e+	c #1F110C",
"f+	c #2D1812",
"g+	c #2A1614",
"h+	c #321C16",
"i+	c #27150E",
"j+	c #301A14",
"k+	c #3A1F19",
"l+	c #391E19",
"m+	c #190E08",
"n+	c #251410",
"o+	c #2B1715",
"p+	c #271510",
"q+	c #331B16",
"r+	c #281510",
"s+	c #251412",
"t+	c #311A17",
"u+	c #21120D",
"v+	c #1D0F0B",
"w+	c #371D18",
"x+	c #2B1711",
"y+	c #25140E",
"z+	c #241412",
"A+	c #311B17",
"B+	c #291613",
". + @ # # @ $ # @ % % # % % % $ @ $ # # + # # @ $ % $ @ $ # + # + # # % % $ # # & . ",
"+ * = # # - ; # > , ' * ) ! ~ { ] ^ # # / $ ( > _ : - < * # ! * ! # * ' ' [ # # % + ",
"@ > = # # - - } / ! = ! ! # ^ ~ ' * # # / * ^ : ' = = ' | } ' : ' } | = ] _ # # ! % ",
"$ _ / * * 1 2 > ' % # % / * 3 1 4 5 6 7 8 9 8 0 a & # ] > ) = < = b < ! 2 ] * * ~ % ",
"% ' { = / ! 2 c d % # % ' = e ] f g h i j j k l m n o p { d % # % > q ^ / { ~ 2 ] @ ",
"% ! q * ! = 1 r ~ { - { ' ] s t m u v v v v v v u w x y z : % # % ~ - = - A ] 2 { $ ",
"% ' 3 = 2 2 ^ q ! 2 2 ) 3 B C D D v v v v v v v v D D E F ) < ] < d { 2 / 3 ~ - [ $ ",
"# [ / * * < / 1 ) [ ^ ) G H D v v v v v v D D D v v v D I J : ^ [ ) ! = * * ! } # # ",
"@ ! = # # - - > : % @ d K L D v D D v v v D D D D D v D M N b @ % : : ] # # < / = @ ",
"% b O # # - ' ' , d / P Q R v v D D D D D D v v D D v v S T U d / , : ] # # < : * # ",
"# * , ~ d , _ @ % / * V W v v D D D v v D D D D D D D v v X Y ' % + ^ : d ~ ) ) / + ",
"+ / ' = - 2 ^ # # d / Z ` v v D  .v v v v D  . .D D D v v ..+./ $ # * 2 c ] ^ $ $ # ",
"# # @.: ' ) r #.#./ % $.` v v D  .v v v v D  .D v D v v v %.&.d } #.[ b ! ) * # # # ",
"# } | 2 < ] / = b , * *.=.D D D D v v v v D D v v D D D D -.;.b = ! : ] q { - } @.# ",
"% ) ] ] / 2 ^ q ! 1 < ;.>. .D D D D v v D D D v D D D D  .,.'./ # #.: > * = 2 : 1 @ ",
"% ! # q [ z < _ ~ % # $.). . .D D D D D D D D D D D D  . .!.'.d | { d = / - - ~ - $ ",
"% ! # q [ = ! z : % # ~.{.]. . .D  . . . . . .D D D  . .^./.(.: 2 2 ~ = - q q = : % ",
"% ) ] ] ! ! d - d 1 ] 4 _.:. . .D D D D  . . . .D D  . .<.[.}.[ ~ ^ ^ ] - q # = | $ ",
"# [ / |.3 2 : ! ) [ ^ ~ 1.2. . . .D D D  . . . . . . . .3.4.% @ / # # ^ ~ = = ) = @ ",
"@ / = # _ 3 #.#./ % + ) G 5.6. . . . .D  . . . . . . .6.7.8./ / d # # ; 2 - = [ #.# ",
"9.0.0.a.b | # # ! ~ a.0.b.! c.d.e.]. . . . . . .^.f.g.h.) , * ) 0.a.d ) b.) , * $ + ",
"i.j.j.k.: - @ @ / 0.l.j.m.: n.o.p.q. . .r.r.r.r.s.t.u.v.0.w.x.w.y.z.A.j.j.B.0.x.) C.",
"D.D.D.E.0.0.b 0.F.b.j.D.G.A.D.H.I.J.v D D D  . .` K.L.M.E.N.j.O.P.Q.A.R.R.S.k.N.T.y.",
"U.G.V.W.M.B.X.Y.D.O.m.G.k.Z.V.`. +D v D D D  . . ..+++: Y.D.N.F.0.O.Z.V.V.M.W.V.O.y.",
"j.A.: F.A.A.F.@+Y.F.A.Z.b.T.F.#+$+%+&+*+=+-+;+>+,+'+)+X.@+z.Y.0.F.!+: F.A.A.F.: A.j.",
"N.W.: ~+{+{+B.A.b.0.N.y.O.]+B.^+/+W.v.A.(+_+:+H.<+8 [+B.F.: : M.b.B.A.B.{+{+~+: W.N.",
"j.]+~+~+{+{+B.B.F.: ]+]+: X.B.{+{+~+S.F.<+f.}+F.M.|+{+{+M.: : ]+O.{+m.B.{+{+~+~+]+j.",
"D.{+G.F.|+|+O.X.|+!+@+F.!+B.O.|+|+1+X.2+3+4+5+F.M.|+{+{+A.|+W.: 0.|+A.1+|+|+F.G.{+D.",
"j.B.A.Z.B.M.E.O.V.R.j.O.R.m.X.A.E.T.#+6+7+8+l.: : F.B.B.F.V.D.1+!+F.E.E.M.B.Z.A.B.j.",
"U.k.: F.1+W.{+A.G.D.j.w.A.O.: v.^+~+9+0+(+A.Z.: A.G.M.|+Z.T.A.0.Z.Z.D.R.W.1+F.: : y.",
"j.T.: : : F.T.b.O.T.O.: : Z.@+w.T.a+b+'+1+: F.!+M.R.]+F.w.: 0.m.Y.Z.D.D.W.X.W.T.E.U.",
"D.y.y.!+B.j.M.!+O.c+V.0.b.F.F.: v.A.d+e+f+c+0.F.F.O.b.!+y.l.O.l.V.0.O.O.F.: F.F.O.g+",
"D.D.D.E.B.j.~+0.: G.P.O.j.j.!+: 1+F.w.h+i+j+k+Z.j.j.S.k.D.D.1+w.1+T.j.!+B.B.k.j.j.D.",
"D.l.l.!+: F.w.F.O.O.0.1+D.D.k.|+D.U.l+E.v.m+n+A.D.R.]+@+l.o+F.b.E.O.l.W.: : E.D.D.D.",
"y.: b.O.: S.A.Y.D.N.w.F.G.G.]+]+R.R.A.: 2+s.p+O.G.G.B.1+w.: T.T.: : w.Z.Z.w.@+G.G.U.",
"j.A.O.]+F.M.F.z.R.U.F.A.b.M.O.M.Y.Y.O.q+r+t.v.M.T.: X.|+T.: y.j.F.l+A.R.R.|+T.w.A.j.",
"N.@+: : ]+s+B.S.t+!+F.@+Z.s+E.O.O.X.2+u+v+w+D.R.E.O.S.F.A.F.W.!+F.]+A.{+{+|+S.O.@+N.",
"j.v.B.: T.W.O.X.B.w.S.: F.@+A.l+Z.~+x+y+!+1+D.R.E.|+z+B.B.F.X.: ]+B.1+W.@+T.X.B.v.j.",
"D.{+G.: Z.!+A+O.M.b.B.: F.!+!+M.X.A.2+Z.v.w.B.S.A.O.|+O.B.!+!+F.D.V.: T.!+A+O.G.{+D.",
"j.~+l+: |+{+R.A.W.E.0.: Z.R.{+W.B.Y.O.: A.F.E.v.Z.S.X.: z.R.U.F.M.A.: B.{+{+~+Z.~+j.",
"U.k.T.@+S.R.D.A.G.U.O.k.Z.D.R.@+!+{+A.k.w.F.D.G.w.1+S.A.Y.D.N.F.: O.W.B.R.R.~+: k.U.",
"m+D.y.N.j.R.R.y.U.D.y.D.y.D.R.B+B+R.y.D.l.l.D.U.l.l.B+j.N.D.D.l.l.y.U.g+R.R.g+l.D.m+",
"                                                                                    "};
